<svg xmlns="http://www.w3.org/2000/svg" xmlns:xlink="http://www.w3.org/1999/xlink" width="500" zoomAndPan="magnify" viewBox="0 0 375 374.999991" height="500" preserveAspectRatio="xMidYMid meet" version="1.0"><defs><clipPath id="6dc98fb3de"><path d="M 155.378906 28.21875 L 369.949219 28.21875 L 369.949219 262.636719 L 155.378906 262.636719 Z M 155.378906 28.21875 " clip-rule="nonzero"/></clipPath><clipPath id="60f745b3f1"><path d="M 200.246094 177 L 369.949219 177 L 369.949219 262.636719 L 200.246094 262.636719 Z M 200.246094 177 " clip-rule="nonzero"/></clipPath><clipPath id="84dbcce28a"><path d="M 65 352.355469 L 74.324219 352.355469 L 74.324219 375 L 65 375 Z M 65 352.355469 " clip-rule="nonzero"/></clipPath></defs><path fill="#efc8a8" d="M 233.226562 259.597656 L 231.847656 191.667969 C 255.894531 191.394531 287.21875 186.28125 314.226562 184.070312 C 314.195312 181.738281 314.476562 179.414062 315.066406 177.15625 C 315.605469 175.070312 316.4375 173.074219 317.535156 171.222656 C 321.605469 165 332.507812 162.589844 336.554688 169.847656 L 356.761719 227.972656 L 345.5625 271.472656 C 345.101562 273.253906 344.351562 274.949219 343.335938 276.484375 C 343.335938 276.484375 339.757812 282.320312 336.355469 287.421875 L 245.902344 287.503906 C 238.046875 280.316406 233.46875 270.238281 233.226562 259.597656 " fill-opacity="1" fill-rule="nonzero"/><path fill="#d4d0e3" d="M 343.277344 314.257812 C 343.316406 316.800781 340.636719 318.882812 337.300781 318.910156 L 325.554688 319.003906 L 243.257812 319.664062 C 239.914062 319.683594 237.175781 317.652344 237.144531 315.113281 L 236.816406 291.441406 C 236.78125 288.898438 239.457031 286.824219 242.800781 286.792969 L 325.554688 286.128906 L 336.847656 286.042969 C 340.183594 286.011719 342.917969 288.046875 342.953125 290.585938 L 343.277344 314.257812 " fill-opacity="1" fill-rule="nonzero"/><path fill="#b5b2c7" d="M 343.277344 314.257812 C 343.316406 316.800781 340.636719 318.882812 337.300781 318.910156 L 325.554688 319.003906 L 325.554688 286.128906 L 336.847656 286.042969 C 340.183594 286.011719 342.917969 288.046875 342.953125 290.585938 L 343.277344 314.257812 " fill-opacity="1" fill-rule="nonzero"/><path fill="#f79613" d="M 353.4375 374.1875 L 245.480469 374.1875 C 281.886719 374.1875 313.777344 354.257812 331.398438 318.714844 L 352.625 318.542969 L 353.4375 374.1875 " fill-opacity="1" fill-rule="nonzero"/><path fill="#fab317" d="M 331.394531 318.710938 C 313.777344 354.253906 281.886719 374.183594 245.472656 374.183594 L 228.738281 374.183594 L 227.921875 319.539062 L 331.394531 318.710938 " fill-opacity="1" fill-rule="nonzero"/><g clip-path="url(#6dc98fb3de)"><path fill="#fab317" d="M 197.71875 207.628906 L 221.648438 262.050781 L 361.828125 200.445312 C 368.699219 197.425781 371.816406 189.414062 368.796875 182.542969 L 308.152344 44.605469 L 251.632812 69.441406 C 250.488281 69.933594 249.164062 69.402344 248.675781 68.265625 C 248.511719 67.890625 248.457031 67.484375 248.511719 67.082031 C 249.261719 61.167969 249.949219 49.945312 245.996094 42.804688 C 238.625 29.613281 221.949219 24.894531 208.753906 32.265625 C 195.5625 39.636719 190.839844 56.308594 198.210938 69.496094 C 201.738281 75.804688 207.617188 80.464844 214.5625 82.457031 C 215.464844 82.714844 215.984375 83.65625 215.71875 84.554688 C 215.582031 85.039062 215.234375 85.4375 214.773438 85.636719 L 155.527344 111.671875 C 158.277344 117.925781 175.308594 156.660156 181.492188 170.769531 C 181.871094 171.636719 182.882812 172.027344 183.746094 171.644531 C 184.207031 171.445312 184.554688 171.050781 184.699219 170.574219 C 188.863281 156.042969 204.019531 147.640625 218.546875 151.804688 C 233.082031 155.964844 241.484375 171.113281 237.320312 185.644531 C 235.332031 192.589844 230.667969 198.46875 224.359375 201.996094 C 217.203125 205.953125 205.984375 205.242188 200.054688 204.5 C 198.824219 204.34375 197.699219 205.214844 197.546875 206.441406 C 197.496094 206.847656 197.554688 207.253906 197.71875 207.628906 " fill-opacity="1" fill-rule="nonzero"/></g><g clip-path="url(#60f745b3f1)"><path fill="#f79613" d="M 200.679688 214.371094 L 221.644531 262.050781 L 361.828125 200.445312 C 368.695312 197.425781 371.816406 189.414062 368.796875 182.542969 L 366.425781 177.148438 C 360.402344 180.238281 354.246094 183.167969 347.953125 185.9375 C 301.628906 206.375 251.285156 216.09375 200.679688 214.371094 " fill-opacity="1" fill-rule="nonzero"/></g><path fill="#efc8a8" d="M 300.304688 243.882812 C 301.777344 240.75 303.53125 237.285156 305.582031 233.6875 C 311.402344 223.46875 321.625 219.285156 321.625 219.285156 C 321.625 219.285156 317.214844 192.667969 315.816406 183.78125 C 314.839844 177.554688 316.007812 171.175781 319.128906 165.695312 C 323.40625 159.058594 334.589844 156.296875 338.582031 163.882812 L 358.09375 224.824219 L 345.804688 270.945312 " fill-opacity="1" fill-rule="nonzero"/><path fill="#efc8a8" d="M 144.097656 123.273438 L 145.476562 191.203125 C 121.429688 191.476562 90.109375 196.589844 63.101562 198.796875 C 63.128906 201.128906 62.847656 203.457031 62.253906 205.714844 C 61.71875 207.796875 60.886719 209.796875 59.785156 211.644531 C 55.714844 217.867188 44.816406 220.28125 40.769531 213.019531 L 20.5625 154.894531 L 31.761719 111.394531 C 32.222656 109.613281 32.972656 107.921875 33.988281 106.382812 C 33.988281 106.382812 37.566406 100.550781 40.96875 95.445312 L 131.421875 95.359375 L 131.421875 95.363281 C 139.277344 102.550781 143.851562 112.632812 144.097656 123.273438 " fill-opacity="1" fill-rule="nonzero"/><path fill="#d4d0e3" d="M 140.507812 91.425781 L 140.179688 67.753906 C 140.144531 65.214844 137.410156 63.179688 134.070312 63.203125 L 40.023438 63.957031 C 36.683594 63.984375 34.007812 66.066406 34.042969 68.605469 L 34.371094 92.277344 C 34.40625 94.816406 37.140625 96.855469 40.480469 96.828125 L 134.527344 96.074219 C 137.863281 96.046875 140.542969 93.96875 140.507812 91.425781 " fill-opacity="1" fill-rule="nonzero"/><path fill="#b5b2c7" d="M 51.769531 96.59375 L 38.546875 96.59375 C 36.050781 96.59375 34.023438 94.570312 34.023438 92.074219 L 34.023438 69.644531 C 34.023438 66.628906 36.46875 64.183594 39.488281 64.183594 L 51.769531 64.183594 L 51.769531 96.597656 L 51.769531 96.59375 " fill-opacity="1" fill-rule="nonzero"/><path fill="#4bc3ca" d="M 23.882812 0 L 131.847656 0 C 95.4375 0 63.546875 28.613281 45.933594 64.15625 L 24.703125 64.324219 L 23.882812 0 " fill-opacity="1" fill-rule="nonzero"/><path fill="#54c7de" d="M 45.933594 64.15625 C 63.546875 28.613281 95.4375 0 131.847656 0 L 148.585938 0 L 149.40625 63.324219 L 45.933594 64.15625 " fill-opacity="1" fill-rule="nonzero"/><path fill="#d41f31" d="M 236.632812 169.714844 C 240.457031 182.007812 235.21875 195.304688 224.042969 201.695312 C 216.917969 205.703125 205.6875 205.082031 199.738281 204.367188 C 198.511719 204.21875 197.398438 205.09375 197.25 206.320312 C 197.199219 206.726562 197.261719 207.136719 197.429688 207.507812 L 218.859375 255.375 C 221.042969 260.253906 218.863281 265.976562 213.988281 268.160156 C 213.988281 268.160156 213.984375 268.164062 213.984375 268.164062 C 200.011719 274.414062 174.6875 285.746094 163.882812 290.59375 C 163.023438 290.980469 162.015625 290.597656 161.628906 289.742188 C 161.417969 289.273438 161.429688 288.742188 161.652344 288.28125 C 168.324219 274.722656 162.738281 258.320312 149.171875 251.648438 C 135.601562 244.980469 119.199219 250.570312 112.527344 264.128906 C 109.339844 270.617188 108.84375 278.105469 111.15625 284.957031 C 113.777344 292.699219 122.582031 299.707031 127.480469 303.144531 C 128.492188 303.84375 128.75 305.238281 128.042969 306.253906 C 127.8125 306.585938 127.496094 306.851562 127.121094 307.019531 L 70.765625 332.242188 L 8.207031 192.496094 C 5.140625 185.640625 8.210938 177.597656 15.066406 174.527344 L 147.261719 115.382812 C 151.371094 113.546875 156.191406 115.382812 158.027344 119.492188 C 158.027344 119.492188 158.03125 119.492188 158.03125 119.492188 C 164.152344 133.171875 176 159.644531 180.960938 170.757812 C 181.34375 171.621094 182.351562 172.011719 183.214844 171.628906 C 183.679688 171.425781 184.03125 171.023438 184.167969 170.539062 C 188.226562 155.984375 203.316406 147.480469 217.875 151.539062 C 226.804688 154.027344 233.867188 160.871094 236.636719 169.714844 L 236.632812 169.714844 " fill-opacity="1" fill-rule="nonzero"/><path fill="#c21c2e" d="M 224.039062 201.699219 C 216.917969 205.707031 205.691406 205.085938 199.742188 204.367188 C 198.511719 204.222656 197.394531 205.097656 197.246094 206.328125 C 197.199219 206.730469 197.261719 207.140625 197.425781 207.515625 L 218.863281 255.378906 C 221.042969 260.257812 218.863281 265.976562 213.988281 268.167969 C 200.011719 274.414062 174.695312 285.753906 163.882812 290.597656 C 163.019531 290.980469 162.011719 290.597656 161.625 289.738281 C 161.417969 289.273438 161.429688 288.746094 161.652344 288.289062 C 168.324219 274.726562 162.738281 258.328125 149.171875 251.65625 C 135.609375 244.980469 119.203125 250.566406 112.527344 264.128906 C 109.335938 270.617188 108.839844 278.109375 111.15625 284.960938 C 113.78125 292.695312 122.582031 299.710938 127.480469 303.144531 C 128.5 303.847656 128.75 305.242188 128.046875 306.253906 C 127.816406 306.589844 127.492188 306.855469 127.121094 307.023438 L 70.765625 332.242188 L 56.0625 299.394531 C 103.765625 264.347656 135.539062 201.703125 135.539062 130.265625 C 135.539062 127.058594 135.472656 123.875 135.347656 120.710938 L 147.257812 115.378906 C 151.371094 113.542969 156.1875 115.382812 158.03125 119.492188 C 164.148438 133.171875 176 159.636719 180.960938 170.757812 C 181.347656 171.625 182.355469 172.011719 183.222656 171.625 C 183.683594 171.421875 184.027344 171.023438 184.167969 170.535156 C 188.238281 155.984375 203.339844 147.488281 217.898438 151.558594 C 232.453125 155.628906 240.949219 170.726562 236.878906 185.28125 C 234.933594 192.230469 230.320312 198.132812 224.042969 201.695312 L 224.039062 201.699219 " fill-opacity="1" fill-rule="nonzero"/><path fill="#efc8a8" d="M 77.015625 138.988281 C 75.546875 142.121094 73.792969 145.582031 71.742188 149.179688 C 65.925781 159.398438 55.695312 163.582031 55.695312 163.582031 C 55.695312 163.582031 60.109375 190.199219 61.503906 199.085938 C 62.484375 205.316406 61.316406 211.695312 58.191406 217.171875 C 53.914062 223.808594 42.730469 226.570312 38.738281 218.988281 L 19.226562 158.046875 L 31.515625 111.929688 " fill-opacity="1" fill-rule="nonzero"/><path fill="#7a7d82" d="M 92.035156 344.09375 L 99.753906 340.117188 L 109.78125 359.566406 L 102.0625 363.546875 L 92.035156 344.09375 " fill-opacity="1" fill-rule="nonzero"/><path fill="#7a7d82" d="M 29.523438 359.566406 L 39.550781 340.117188 L 47.273438 344.097656 L 37.246094 363.546875 L 29.523438 359.566406 " fill-opacity="1" fill-rule="nonzero"/><g clip-path="url(#84dbcce28a)"><path fill="#7a7d82" d="M 65.035156 374.808594 L 65.585938 352.9375 L 74.269531 353.15625 L 73.71875 375.027344 L 65.035156 374.808594 " fill-opacity="1" fill-rule="nonzero"/></g><path fill="#7a7d82" d="M 275.796875 16.3125 L 283.515625 12.332031 L 293.542969 31.78125 L 285.824219 35.761719 L 275.796875 16.3125 " fill-opacity="1" fill-rule="nonzero"/><path fill="#7a7d82" d="M 338.308594 31.78125 L 348.332031 12.332031 L 356.054688 16.308594 L 346.027344 35.757812 L 338.308594 31.78125 " fill-opacity="1" fill-rule="nonzero"/><path fill="#7a7d82" d="M 311.3125 22.71875 L 311.863281 0.847656 L 320.542969 1.066406 L 319.992188 22.941406 L 311.3125 22.71875 " fill-opacity="1" fill-rule="nonzero"/></svg>