<svg xmlns="http://www.w3.org/2000/svg" xmlns:xlink="http://www.w3.org/1999/xlink" width="500" zoomAndPan="magnify" viewBox="0 0 375 374.999991" height="500" preserveAspectRatio="xMidYMid meet" version="1.0"><defs><clipPath id="27e26665af"><path d="M 304 210 L 365.34375 210 L 365.34375 326 L 304 326 Z M 304 210 " clip-rule="nonzero"/></clipPath></defs><path fill="#d2d5f7" d="M 21.589844 137.417969 C 21.34375 136.546875 21.085938 135.679688 20.789062 134.835938 C 20.503906 133.984375 20.191406 133.140625 19.851562 132.3125 C 19.503906 131.480469 19.207031 130.59375 18.878906 129.734375 C 18.566406 128.871094 18.324219 127.976562 18.042969 127.09375 C 17.03125 123.539062 16.4375 119.863281 16.175781 116.167969 C 15.671875 108.773438 16.464844 101.28125 18.460938 94.144531 C 19.445312 90.566406 20.726562 87.078125 22.257812 83.699219 C 22.640625 82.847656 23.054688 82.03125 23.472656 81.195312 L 24.792969 78.753906 C 25.269531 77.953125 25.730469 77.148438 26.21875 76.363281 C 26.714844 75.574219 27.226562 74.808594 27.753906 74.042969 C 29.867188 71 32.296875 68.175781 34.988281 65.632812 C 37.707031 63.128906 40.695312 60.914062 43.976562 59.269531 L 44.171875 59.589844 C 38.378906 63.9375 33.746094 69.480469 30.082031 75.546875 C 29.621094 76.304688 29.171875 77.070312 28.746094 77.84375 L 27.503906 80.195312 L 26.347656 82.59375 C 25.976562 83.394531 25.609375 84.210938 25.269531 85.019531 C 23.917969 88.296875 22.742188 91.644531 21.8125 95.058594 C 20.875 98.472656 20.15625 101.949219 19.703125 105.460938 C 19.226562 108.972656 19.007812 112.515625 19.019531 116.0625 C 19.042969 119.609375 19.332031 123.15625 19.921875 126.675781 C 20.09375 127.550781 20.222656 128.4375 20.417969 129.308594 L 21.042969 131.933594 C 21.265625 132.828125 21.457031 133.730469 21.621094 134.632812 C 21.769531 135.539062 21.894531 136.449219 21.960938 137.363281 Z M 21.589844 137.417969 " fill-opacity="1" fill-rule="nonzero"/><path fill="#d2d5f7" d="M 337.097656 258.074219 C 335.761719 261.484375 334.007812 264.761719 331.878906 267.792969 C 331.347656 268.550781 330.800781 269.296875 330.21875 270.019531 L 329.34375 271.105469 C 329.046875 271.460938 328.742188 271.816406 328.429688 272.15625 C 327.195312 273.546875 325.859375 274.851562 324.476562 276.09375 C 321.699219 278.585938 318.605469 280.722656 315.367188 282.566406 C 312.117188 284.398438 308.722656 285.972656 305.222656 287.242188 C 301.722656 288.511719 298.164062 289.578125 294.566406 290.449219 C 290.964844 291.335938 287.339844 292.039062 283.695312 292.636719 C 276.421875 293.820312 269.136719 294.65625 261.917969 295.53125 C 258.308594 295.984375 254.71875 296.472656 251.195312 297.121094 C 249.4375 297.445312 247.683594 297.800781 245.964844 298.234375 C 244.246094 298.660156 242.554688 299.132812 240.9375 299.730469 C 237.679688 300.914062 234.492188 302.539062 231.375 304.300781 C 228.246094 306.050781 225.164062 307.976562 222.0625 309.882812 C 218.964844 311.8125 215.84375 313.722656 212.683594 315.597656 C 209.53125 317.484375 206.308594 319.265625 203.035156 320.945312 C 196.480469 324.296875 189.617188 327.140625 182.488281 328.914062 L 182.375 328.550781 C 189.164062 325.847656 195.601562 322.484375 201.8125 318.746094 C 203.359375 317.800781 204.910156 316.851562 206.429688 315.867188 C 207.953125 314.886719 209.480469 313.90625 211 312.898438 C 214.039062 310.898438 217.027344 308.820312 220.082031 306.796875 C 223.117188 304.761719 226.199219 302.753906 229.394531 300.851562 C 231 299.90625 232.632812 299.007812 234.308594 298.15625 C 235.144531 297.730469 235.996094 297.324219 236.863281 296.933594 L 238.191406 296.382812 L 238.859375 296.105469 C 239.050781 296.027344 239.296875 295.941406 239.519531 295.855469 C 241.328125 295.183594 243.152344 294.65625 244.976562 294.195312 C 246.808594 293.75 248.640625 293.386719 250.472656 293.066406 C 254.136719 292.421875 257.792969 291.953125 261.433594 291.519531 C 268.71875 290.640625 275.972656 290.015625 283.144531 288.980469 C 290.300781 287.921875 297.414062 286.617188 304.226562 284.367188 C 307.628906 283.242188 310.972656 281.933594 314.160156 280.308594 C 314.957031 279.914062 315.742188 279.472656 316.523438 279.039062 C 316.914062 278.820312 317.304688 278.59375 317.6875 278.367188 L 318.824219 277.65625 C 319.578125 277.167969 320.335938 276.691406 321.058594 276.171875 C 321.792969 275.664062 322.507812 275.121094 323.210938 274.570312 C 328.839844 270.132812 333.476562 264.410156 336.75 257.902344 Z M 337.097656 258.074219 " fill-opacity="1" fill-rule="nonzero"/><path fill="#d2d5f7" d="M 238.582031 5.355469 C 242.011719 3.972656 245.511719 2.796875 249.109375 1.851562 C 252.707031 0.921875 256.429688 0.296875 260.21875 0.164062 C 264.003906 0.0273438 267.851562 0.425781 271.558594 1.398438 C 273.410156 1.878906 275.226562 2.519531 276.996094 3.265625 C 278.753906 4.023438 280.460938 4.910156 282.09375 5.890625 C 283.703125 6.910156 285.308594 7.984375 286.785156 9.230469 C 288.269531 10.464844 289.644531 11.835938 290.894531 13.3125 C 293.414062 16.261719 295.261719 19.738281 296.511719 23.332031 C 297.15625 25.125 297.605469 26.96875 297.996094 28.800781 C 298.34375 30.644531 298.625 32.492188 298.8125 34.335938 C 298.996094 36.179688 299.136719 38.023438 299.257812 39.855469 L 299.457031 42.601562 C 299.507812 43.523438 299.578125 44.4375 299.613281 45.367188 L 299.605469 45.367188 C 297.640625 38.253906 296.808594 30.824219 293.941406 24.316406 C 292.542969 21.066406 290.726562 18.042969 288.382812 15.476562 C 286.0625 12.886719 283.292969 10.722656 280.28125 8.890625 C 278.769531 7.976562 277.214844 7.152344 275.605469 6.4375 C 274.007812 5.703125 272.351562 5.101562 270.667969 4.597656 C 267.296875 3.589844 263.785156 3.050781 260.226562 2.917969 C 256.664062 2.78125 253.054688 3.058594 249.441406 3.535156 C 245.828125 4.007812 242.222656 4.734375 238.582031 5.355469 Z M 238.582031 5.355469 " fill-opacity="1" fill-rule="nonzero"/><path fill="#d2d5f7" d="M 336.769531 203.960938 C 336.628906 206.847656 336.613281 209.824219 336.644531 212.84375 C 336.644531 212.945312 336.644531 213.042969 336.652344 213.148438 L 336.652344 213.15625 C 336.65625 214.277344 336.671875 215.40625 336.6875 216.550781 C 336.691406 216.675781 336.691406 216.804688 336.691406 216.9375 L 336.691406 216.976562 C 336.691406 217.082031 336.699219 217.195312 336.699219 217.300781 C 336.699219 217.351562 336.699219 217.394531 336.707031 217.441406 C 336.714844 217.691406 336.714844 217.945312 336.722656 218.203125 L 336.722656 218.230469 C 336.730469 218.628906 336.734375 219.027344 336.742188 219.429688 C 336.757812 220.921875 336.777344 222.417969 336.785156 223.929688 C 336.792969 224.363281 336.792969 224.792969 336.792969 225.226562 C 336.792969 225.703125 336.785156 226.164062 336.785156 226.640625 C 336.785156 226.851562 336.777344 227.058594 336.777344 227.261719 C 336.765625 228.148438 336.75 229.042969 336.730469 229.929688 C 336.730469 229.929688 336.730469 229.929688 336.730469 229.9375 C 336.699219 230.933594 336.65625 231.925781 336.609375 232.917969 C 336.566406 233.605469 336.523438 234.308594 336.472656 234.996094 C 336.410156 235.921875 336.332031 236.835938 336.230469 237.757812 C 336.125 238.785156 335.996094 239.824219 335.847656 240.851562 C 335.300781 244.625 334.464844 248.34375 333.171875 251.957031 C 332.746094 253.140625 332.285156 254.304688 331.757812 255.460938 C 331.210938 256.667969 330.609375 257.867188 329.933594 259.042969 C 328.90625 260.859375 327.71875 262.628906 326.355469 264.351562 C 326.128906 264.644531 325.894531 264.925781 325.652344 265.21875 C 325.355469 265.578125 325.050781 265.949219 324.730469 266.304688 C 324.476562 266.585938 324.21875 266.871094 323.949219 267.15625 C 323.0625 268.097656 322.140625 268.992188 321.179688 269.835938 C 320.101562 270.800781 318.980469 271.703125 317.824219 272.539062 C 317.441406 272.808594 317.054688 273.078125 316.671875 273.347656 C 316.261719 273.632812 315.835938 273.910156 315.410156 274.179688 C 315.246094 274.277344 315.082031 274.378906 314.917969 274.484375 C 314.671875 274.640625 314.414062 274.789062 314.160156 274.945312 C 313.828125 275.152344 313.484375 275.34375 313.136719 275.535156 C 312.890625 275.675781 312.640625 275.816406 312.386719 275.953125 C 312.222656 276.046875 312.066406 276.125 311.902344 276.207031 C 311.492188 276.4375 311.066406 276.648438 310.644531 276.863281 C 309.921875 277.222656 309.191406 277.570312 308.4375 277.898438 C 306.359375 278.832031 304.207031 279.65625 302.007812 280.394531 C 299.246094 281.316406 296.398438 282.097656 293.5 282.765625 C 291.023438 283.339844 288.503906 283.84375 285.976562 284.277344 C 284.265625 284.574219 282.554688 284.84375 280.835938 285.09375 C 276.101562 285.789062 271.351562 286.328125 266.738281 286.851562 C 261.234375 287.492188 255.910156 288.109375 250.984375 288.953125 C 250.59375 289.015625 250.210938 289.078125 249.824219 289.152344 C 246.789062 289.695312 243.914062 290.34375 241.25 291.136719 C 240.625 291.320312 240.007812 291.519531 239.410156 291.71875 C 238.863281 291.910156 238.316406 292.109375 237.765625 292.324219 C 237.027344 292.597656 236.273438 292.910156 235.527344 293.238281 C 235.167969 293.386719 234.8125 293.550781 234.457031 293.71875 C 233.261719 294.273438 232.050781 294.878906 230.835938 295.523438 C 230.226562 295.84375 229.605469 296.175781 228.996094 296.53125 C 228.742188 296.671875 228.480469 296.820312 228.230469 296.964844 C 222.074219 300.46875 215.644531 304.882812 208.691406 309.222656 C 202.695312 312.96875 196.3125 316.675781 189.398438 319.691406 C 177.832031 324.75 164.777344 327.890625 149.5625 326.167969 C 146.367188 325.804688 143.359375 325.097656 140.511719 324.144531 C 137.117188 323.011719 133.972656 321.511719 131.035156 319.804688 C 125.609375 316.640625 120.910156 312.722656 116.785156 308.96875 C 112.660156 305.222656 109.105469 301.644531 105.9375 299.148438 C 105.546875 298.835938 105.164062 298.539062 104.78125 298.261719 C 103.863281 297.59375 102.835938 297.078125 101.71875 296.671875 C 101.230469 296.488281 100.71875 296.332031 100.195312 296.191406 C 98.625 295.769531 96.898438 295.515625 95.054688 295.351562 C 94.214844 295.28125 93.34375 295.226562 92.449219 295.175781 C 92.449219 295.175781 92.449219 295.175781 92.441406 295.175781 C 91.390625 295.117188 90.304688 295.082031 89.199219 295.039062 C 85.230469 294.914062 80.914062 294.8125 76.445312 294.195312 C 75.980469 294.132812 75.511719 294.0625 75.035156 293.988281 C 74.253906 293.863281 73.464844 293.714844 72.675781 293.550781 L 72.65625 293.550781 C 72.484375 293.515625 72.316406 293.480469 72.136719 293.4375 C 68.730469 292.683594 65.273438 291.535156 61.859375 289.753906 L 61.851562 289.753906 C 60.773438 289.195312 59.699219 288.570312 58.628906 287.875 C 58.09375 287.53125 57.578125 287.179688 57.050781 286.796875 C 56.691406 286.539062 56.320312 286.261719 55.957031 285.980469 C 55.832031 285.878906 55.703125 285.789062 55.582031 285.6875 C 55.027344 285.25 54.496094 284.808594 53.992188 284.355469 C 53.273438 283.714844 52.609375 283.070312 51.976562 282.417969 C 51.371094 281.792969 50.8125 281.160156 50.292969 280.507812 C 49.257812 279.246094 48.371094 277.945312 47.609375 276.632812 C 47.289062 276.089844 47 275.535156 46.722656 274.980469 C 44.179688 269.828125 43.449219 264.402344 43.386719 259 C 43.378906 258.917969 43.378906 258.824219 43.378906 258.730469 C 43.371094 258.371094 43.371094 258 43.378906 257.632812 C 43.386719 256.6875 43.40625 255.746094 43.441406 254.808594 C 43.457031 254.453125 43.472656 254.097656 43.484375 253.75 C 43.585938 251.550781 43.734375 249.375 43.867188 247.238281 C 43.882812 246.933594 43.902344 246.632812 43.917969 246.328125 C 43.988281 244.945312 44.046875 243.589844 44.074219 242.25 L 44.074219 242.242188 C 44.082031 241.597656 44.082031 240.957031 44.074219 240.328125 C 44.054688 239.0625 43.980469 237.820312 43.855469 236.617188 C 43.492188 233.308594 42.648438 230.230469 40.90625 227.503906 C 30.664062 211.433594 21.753906 210.859375 15.03125 199.164062 C 14.910156 198.964844 14.804688 198.761719 14.691406 198.554688 C 13.449219 196.304688 12.289062 193.652344 11.210938 190.429688 C 11.15625 190.261719 11.097656 190.089844 11.042969 189.914062 C 9.925781 186.492188 10.203125 183.320312 11.296875 180.207031 C 11.738281 178.964844 12.304688 177.730469 12.964844 176.488281 C 13.121094 176.191406 13.292969 175.890625 13.453125 175.601562 C 15.542969 171.917969 18.367188 168.164062 20.972656 164 C 21.15625 163.707031 21.328125 163.425781 21.511719 163.132812 C 23.230469 160.316406 24.8125 157.316406 25.992188 154.015625 C 28.378906 147.347656 29.085938 139.492188 25.78125 129.59375 C 21.3125 116.226562 23.019531 100.1875 28.769531 86.828125 C 28.910156 86.488281 29.058594 86.152344 29.214844 85.8125 C 29.378906 85.457031 29.542969 85.109375 29.707031 84.761719 C 29.824219 84.492188 29.953125 84.238281 30.082031 83.976562 C 30.429688 83.257812 30.792969 82.550781 31.167969 81.847656 C 31.53125 81.152344 31.921875 80.476562 32.3125 79.804688 C 33.824219 77.222656 35.5 74.808594 37.324219 72.601562 C 37.449219 72.4375 37.585938 72.28125 37.71875 72.121094 C 39.070312 70.523438 40.488281 69.046875 41.988281 67.710938 C 42.3125 67.421875 42.648438 67.132812 42.980469 66.855469 C 46.460938 63.929688 50.292969 61.757812 54.375 60.566406 C 58.648438 59.324219 62.488281 58.59375 66.039062 58.183594 C 81.765625 56.359375 91.867188 60.695312 109.054688 53.410156 C 113.15625 51.667969 116.578125 49.292969 119.554688 46.53125 C 132.175781 34.867188 136.90625 16.347656 151.734375 10.351562 C 168.183594 3.703125 186.898438 13.730469 204.554688 16.007812 C 207.828125 16.433594 211.070312 16.589844 214.257812 16.320312 C 221.734375 15.695312 228.804688 13.707031 235.664062 11.714844 L 238.496094 10.890625 L 238.503906 10.890625 C 240.398438 10.339844 242.28125 9.804688 244.148438 9.308594 C 246.0625 8.804688 247.960938 8.34375 249.847656 7.960938 C 259.488281 6.003906 268.945312 6.011719 278.753906 12.078125 C 298.507812 24.300781 288.695312 45.824219 299.882812 60.675781 C 302.042969 63.539062 304.441406 65.96875 306.984375 68.109375 C 310.929688 71.429688 315.253906 74.085938 319.667969 76.660156 C 320.011719 76.859375 320.351562 77.058594 320.699219 77.261719 C 321.324219 77.625 321.960938 77.996094 322.585938 78.363281 C 322.886719 78.539062 323.183594 78.710938 323.472656 78.882812 C 334.847656 85.53125 346.292969 92.910156 353.105469 111.34375 C 353.652344 112.8125 354.171875 114.351562 354.65625 115.960938 C 364.257812 148.113281 340.035156 170.585938 337.097656 199.632812 C 336.941406 201.039062 336.84375 202.492188 336.769531 203.960938 Z M 336.769531 203.960938 " fill-opacity="1" fill-rule="nonzero"/><path fill="#dd866b" d="M 98.773438 158.335938 C 92.769531 156.726562 77.25 162.4375 75.886719 172.507812 C 74.523438 182.574219 81.523438 215.363281 88.699219 213.824219 C 95.863281 212.292969 108.335938 160.898438 98.773438 158.335938 Z M 98.773438 158.335938 " fill-opacity="1" fill-rule="nonzero"/><path fill="#344156" d="M 271.011719 261.386719 L 122.75 268.246094 C 120.5 268.355469 118.496094 266.847656 117.964844 264.65625 L 72.726562 77.40625 C 72.03125 74.539062 74.125 71.75 77.078125 71.617188 L 225.339844 64.753906 C 227.589844 64.648438 229.59375 66.152344 230.125 68.34375 L 275.371094 255.601562 C 276.058594 258.460938 273.964844 261.25 271.011719 261.386719 Z M 271.011719 261.386719 " fill-opacity="1" fill-rule="nonzero"/><path fill="#47536b" d="M 274.097656 261.386719 L 125.835938 268.246094 C 123.585938 268.355469 121.585938 266.847656 121.050781 264.65625 L 75.808594 77.40625 C 75.113281 74.539062 77.207031 71.75 80.160156 71.617188 L 228.421875 64.753906 C 230.671875 64.648438 232.675781 66.152344 233.207031 68.34375 L 278.449219 255.601562 C 279.140625 258.460938 277.042969 261.25 274.097656 261.386719 Z M 274.097656 261.386719 " fill-opacity="1" fill-rule="nonzero"/><path fill="#ffffff" d="M 264.761719 250.183594 L 129.734375 256.425781 C 127.683594 256.519531 125.859375 255.148438 125.375 253.15625 L 123.792969 246.597656 L 122.527344 241.382812 L 116.835938 217.8125 L 115.558594 212.53125 L 84.164062 82.605469 C 83.53125 79.996094 85.441406 77.453125 88.125 77.328125 L 223.152344 71.082031 C 225.199219 70.992188 227.023438 72.359375 227.507812 74.355469 L 268.71875 244.902344 C 269.355469 247.515625 267.441406 250.0625 264.761719 250.183594 Z M 264.761719 250.183594 " fill-opacity="1" fill-rule="nonzero"/><path fill="#344156" d="M 212.789062 260.664062 L 193.847656 261.613281 C 193.371094 261.632812 192.941406 261.316406 192.832031 260.847656 L 192.238281 258.269531 C 192.09375 257.667969 192.535156 257.085938 193.152344 257.058594 L 212.09375 256.105469 C 212.570312 256.085938 213.003906 256.40625 213.109375 256.875 L 213.703125 259.449219 C 213.847656 260.050781 213.40625 260.632812 212.789062 260.664062 Z M 212.789062 260.664062 " fill-opacity="1" fill-rule="nonzero"/><path fill="#8d9cb4" d="M 212.996094 260.355469 L 194.054688 261.308594 C 193.578125 261.328125 193.144531 261.011719 193.039062 260.542969 L 192.441406 257.964844 C 192.300781 257.363281 192.742188 256.78125 193.359375 256.753906 L 212.300781 255.800781 C 212.773438 255.78125 213.207031 256.101562 213.316406 256.566406 L 213.910156 259.144531 C 214.054688 259.738281 213.613281 260.320312 212.996094 260.355469 Z M 212.996094 260.355469 " fill-opacity="1" fill-rule="nonzero"/><path fill="#268ba7" d="M 114.398438 289.859375 C 114.398438 289.933594 114.359375 290.007812 114.28125 290.078125 C 114.203125 290.152344 114.085938 290.226562 113.929688 290.296875 C 113.773438 290.367188 113.578125 290.4375 113.34375 290.507812 C 113.109375 290.578125 112.839844 290.648438 112.53125 290.714844 C 112.222656 290.785156 111.882812 290.847656 111.503906 290.914062 C 111.125 290.980469 110.710938 291.042969 110.265625 291.101562 C 109.816406 291.164062 109.339844 291.222656 108.828125 291.277344 C 108.320312 291.335938 107.78125 291.390625 107.210938 291.441406 C 106.644531 291.492188 106.046875 291.542969 105.425781 291.589844 C 104.804688 291.632812 104.160156 291.679688 103.492188 291.71875 C 102.824219 291.757812 102.136719 291.796875 101.425781 291.832031 C 100.71875 291.867188 99.992188 291.898438 99.25 291.925781 C 98.507812 291.953125 97.75 291.976562 96.980469 292 C 96.210938 292.019531 95.433594 292.039062 94.644531 292.050781 C 93.855469 292.066406 93.0625 292.078125 92.261719 292.085938 C 91.464844 292.09375 90.660156 292.09375 89.859375 292.09375 C 89.054688 292.09375 88.253906 292.09375 87.453125 292.085938 C 86.652344 292.078125 85.859375 292.066406 85.070312 292.050781 C 84.28125 292.039062 83.503906 292.019531 82.734375 292 C 81.964844 291.976562 81.207031 291.953125 80.464844 291.925781 C 79.722656 291.898438 78.996094 291.867188 78.289062 291.832031 C 77.578125 291.796875 76.890625 291.757812 76.222656 291.71875 C 75.554688 291.679688 74.910156 291.632812 74.289062 291.589844 C 73.667969 291.542969 73.070312 291.492188 72.503906 291.441406 C 71.933594 291.390625 71.394531 291.335938 70.886719 291.277344 C 70.375 291.222656 69.898438 291.164062 69.453125 291.101562 C 69.003906 291.042969 68.59375 290.980469 68.214844 290.914062 C 67.835938 290.847656 67.492188 290.785156 67.183594 290.714844 C 66.875 290.648438 66.605469 290.578125 66.371094 290.507812 C 66.140625 290.4375 65.945312 290.367188 65.785156 290.296875 C 65.628906 290.226562 65.511719 290.152344 65.433594 290.078125 C 65.355469 290.007812 65.316406 289.933594 65.316406 289.859375 C 65.316406 289.789062 65.355469 289.714844 65.433594 289.640625 C 65.511719 289.570312 65.628906 289.496094 65.785156 289.425781 C 65.945312 289.351562 66.140625 289.28125 66.371094 289.210938 C 66.605469 289.140625 66.875 289.074219 67.183594 289.003906 C 67.492188 288.9375 67.835938 288.871094 68.214844 288.808594 C 68.59375 288.742188 69.003906 288.679688 69.453125 288.617188 C 69.898438 288.558594 70.375 288.5 70.886719 288.441406 C 71.394531 288.386719 71.933594 288.332031 72.503906 288.28125 C 73.070312 288.226562 73.667969 288.179688 74.289062 288.132812 C 74.910156 288.085938 75.554688 288.042969 76.222656 288.003906 C 76.890625 287.960938 77.578125 287.921875 78.289062 287.890625 C 78.996094 287.855469 79.722656 287.824219 80.464844 287.796875 C 81.207031 287.765625 81.964844 287.742188 82.734375 287.722656 C 83.503906 287.699219 84.28125 287.683594 85.070312 287.667969 C 85.859375 287.652344 86.652344 287.644531 87.453125 287.636719 C 88.253906 287.628906 89.054688 287.625 89.859375 287.625 C 90.660156 287.625 91.464844 287.628906 92.261719 287.636719 C 93.0625 287.644531 93.855469 287.652344 94.644531 287.667969 C 95.433594 287.683594 96.210938 287.699219 96.980469 287.722656 C 97.75 287.742188 98.507812 287.765625 99.25 287.796875 C 99.992188 287.824219 100.71875 287.855469 101.425781 287.890625 C 102.136719 287.921875 102.824219 287.960938 103.492188 288.003906 C 104.160156 288.042969 104.804688 288.085938 105.425781 288.132812 C 106.046875 288.179688 106.644531 288.226562 107.210938 288.28125 C 107.78125 288.332031 108.320312 288.386719 108.828125 288.441406 C 109.339844 288.5 109.816406 288.558594 110.265625 288.617188 C 110.710938 288.679688 111.125 288.742188 111.503906 288.808594 C 111.882812 288.871094 112.222656 288.9375 112.53125 289.003906 C 112.839844 289.074219 113.109375 289.140625 113.34375 289.210938 C 113.578125 289.28125 113.773438 289.351562 113.929688 289.425781 C 114.085938 289.496094 114.203125 289.570312 114.28125 289.640625 C 114.359375 289.714844 114.398438 289.789062 114.398438 289.859375 Z M 114.398438 289.859375 " fill-opacity="1" fill-rule="nonzero"/><path fill="#f39d7c" d="M 117.402344 351.429688 C 112.285156 339.332031 106.414062 278.714844 108.414062 271.695312 C 110.417969 264.679688 119.675781 227.546875 115.34375 203.925781 C 111.011719 180.304688 113.449219 148.019531 112.605469 144.367188 C 111.765625 140.710938 107.570312 139.386719 105.363281 140.238281 C 103.15625 141.09375 95.886719 147.617188 95.5 161.125 C 95.117188 174.636719 89.46875 197.988281 88.054688 197.652344 C 86.640625 197.320312 82.253906 180.632812 82.175781 178.679688 C 82.097656 176.734375 89.558594 166.035156 90.914062 165.558594 C 92.265625 165.085938 94.367188 166.953125 94.367188 166.953125 L 90.171875 149.601562 C 90.171875 149.601562 84.738281 150.261719 81.699219 152.625 C 78.664062 154.988281 54.070312 181.320312 52.066406 188.335938 C 50.066406 195.355469 65.917969 226.375 69.207031 235.019531 C 72.492188 243.660156 72.636719 298.402344 65.4375 318.652344 C 58.230469 338.917969 117.402344 351.429688 117.402344 351.429688 Z M 117.402344 351.429688 " fill-opacity="1" fill-rule="nonzero"/><path fill="#f9ccb7" d="M 106.710938 141.011719 C 105.179688 143.300781 105.171875 152.277344 107.050781 153.816406 C 109.105469 155.5 110.835938 156.742188 112.007812 155.1875 C 113.03125 153.816406 113.199219 142.890625 111.410156 141.273438 C 109.082031 139.15625 107.398438 139.980469 106.710938 141.011719 Z M 106.710938 141.011719 " fill-opacity="1" fill-rule="nonzero"/><path fill="#4abbca" d="M 127.484375 375.019531 L 58.371094 375.019531 C 60.28125 348.796875 64.996094 293.003906 65.316406 289.859375 C 69.824219 293.074219 110.054688 292.550781 114.398438 289.859375 C 116.613281 303.191406 123.664062 348.050781 127.484375 375.019531 Z M 127.484375 375.019531 " fill-opacity="1" fill-rule="nonzero"/><path fill="#268ba7" d="M 69.914062 296.707031 C 70.101562 298.828125 70.121094 300.949219 70.09375 303.058594 C 70.070312 305.171875 69.964844 307.28125 69.816406 309.386719 C 69.667969 311.496094 69.46875 313.59375 69.207031 315.6875 C 68.941406 317.789062 68.636719 319.875 68.183594 321.960938 C 68.0625 319.832031 68.078125 317.71875 68.132812 315.609375 C 68.183594 313.496094 68.296875 311.394531 68.445312 309.289062 C 68.59375 307.1875 68.78125 305.085938 69.027344 302.988281 C 69.261719 300.894531 69.539062 298.800781 69.914062 296.707031 Z M 69.914062 296.707031 " fill-opacity="0.5" fill-rule="nonzero"/><path fill="#268ba7" d="M 80.394531 296.59375 C 80.683594 298.703125 80.8125 300.816406 80.890625 302.929688 C 80.976562 305.042969 80.976562 307.152344 80.933594 309.265625 C 80.890625 311.375 80.800781 313.488281 80.644531 315.597656 C 80.488281 317.703125 80.289062 319.8125 79.941406 321.910156 C 79.710938 319.796875 79.621094 317.683594 79.570312 315.566406 C 79.515625 313.453125 79.519531 311.347656 79.5625 309.238281 C 79.605469 307.132812 79.683594 305.023438 79.828125 302.917969 C 79.945312 300.808594 80.117188 298.703125 80.394531 296.59375 Z M 80.394531 296.59375 " fill-opacity="0.5" fill-rule="nonzero"/><path fill="#268ba7" d="M 90.867188 296.472656 C 91.242188 298.566406 91.449219 300.679688 91.605469 302.789062 C 91.765625 304.894531 91.851562 307.011719 91.886719 309.117188 C 91.921875 311.226562 91.917969 313.339844 91.839844 315.453125 C 91.765625 317.570312 91.640625 319.675781 91.378906 321.789062 C 91.070312 319.683594 90.894531 317.574219 90.765625 315.46875 C 90.632812 313.359375 90.554688 311.253906 90.519531 309.144531 C 90.484375 307.039062 90.484375 304.929688 90.539062 302.816406 C 90.582031 300.703125 90.675781 298.59375 90.867188 296.472656 Z M 90.867188 296.472656 " fill-opacity="0.5" fill-rule="nonzero"/><path fill="#268ba7" d="M 101.335938 296.359375 C 101.839844 298.433594 102.183594 300.519531 102.472656 302.609375 C 102.769531 304.703125 102.984375 306.804688 103.160156 308.910156 C 103.332031 311.019531 103.460938 313.125 103.515625 315.234375 C 103.582031 317.347656 103.585938 319.464844 103.460938 321.585938 C 103.019531 319.5 102.714844 317.414062 102.453125 315.3125 C 102.183594 313.21875 101.976562 311.117188 101.796875 309.019531 C 101.628906 306.917969 101.492188 304.8125 101.414062 302.703125 C 101.324219 300.597656 101.28125 298.488281 101.335938 296.359375 Z M 101.335938 296.359375 " fill-opacity="0.5" fill-rule="nonzero"/><path fill="#268ba7" d="M 111.816406 296.246094 C 112.304688 298.316406 112.640625 300.410156 112.910156 302.503906 C 113.191406 304.597656 113.398438 306.707031 113.554688 308.804688 C 113.710938 310.914062 113.824219 313.019531 113.867188 315.136719 C 113.917969 317.25 113.910156 319.363281 113.769531 321.484375 C 113.34375 319.398438 113.042969 317.304688 112.796875 315.207031 C 112.539062 313.113281 112.339844 311.011719 112.183594 308.90625 C 112.027344 306.804688 111.90625 304.695312 111.84375 302.589844 C 111.773438 300.484375 111.738281 298.367188 111.816406 296.246094 Z M 111.816406 296.246094 " fill-opacity="0.5" fill-rule="nonzero"/><path fill="#f59f25" d="M 197.328125 194.488281 L 201.140625 194.132812 L 203.59375 197.070312 L 204.433594 193.339844 L 207.988281 191.914062 L 204.695312 189.960938 L 204.433594 186.144531 L 201.566406 188.671875 L 197.851562 187.734375 L 199.363281 191.246094 Z M 197.328125 194.488281 " fill-opacity="1" fill-rule="nonzero"/><path fill="#ffffff" d="M 205.746094 192.429688 L 205.660156 192.167969 L 206.605469 191.855469 L 204 190.4375 L 203.914062 187.480469 L 203.296875 187.96875 L 203.128906 187.753906 L 204.175781 186.910156 L 204.277344 190.265625 L 207.308594 191.921875 Z M 205.746094 192.429688 " fill-opacity="0.8" fill-rule="nonzero"/><path fill="#f59f25" d="M 183.542969 206.515625 C 183.820312 206.558594 184.082031 206.644531 184.328125 206.769531 C 184.570312 206.898438 184.78125 207.058594 184.953125 207.25 C 185.125 207.441406 185.25 207.652344 185.324219 207.882812 C 185.398438 208.109375 185.417969 208.339844 185.382812 208.570312 C 185.347656 208.796875 185.261719 209.011719 185.121094 209.207031 C 184.980469 209.402344 184.800781 209.566406 184.578125 209.699219 C 184.355469 209.832031 184.109375 209.921875 183.839844 209.972656 C 183.566406 210.019531 183.292969 210.023438 183.011719 209.980469 C 182.734375 209.9375 182.472656 209.851562 182.226562 209.726562 C 181.984375 209.597656 181.773438 209.4375 181.601562 209.246094 C 181.429688 209.054688 181.304688 208.84375 181.230469 208.613281 C 181.15625 208.386719 181.136719 208.15625 181.171875 207.925781 C 181.207031 207.695312 181.292969 207.484375 181.433594 207.289062 C 181.574219 207.09375 181.753906 206.929688 181.976562 206.796875 C 182.199219 206.664062 182.445312 206.574219 182.714844 206.523438 C 182.988281 206.476562 183.261719 206.472656 183.542969 206.515625 Z M 183.542969 206.515625 " fill-opacity="1" fill-rule="nonzero"/><path fill="#f59f25" d="M 192.617188 200.867188 C 192.898438 200.910156 193.160156 200.996094 193.40625 201.121094 C 193.648438 201.25 193.859375 201.410156 194.03125 201.601562 C 194.203125 201.792969 194.328125 202.003906 194.402344 202.234375 C 194.476562 202.460938 194.496094 202.691406 194.460938 202.921875 C 194.425781 203.152344 194.335938 203.363281 194.199219 203.558594 C 194.058594 203.753906 193.878906 203.921875 193.65625 204.050781 C 193.433594 204.183594 193.1875 204.273438 192.914062 204.324219 C 192.644531 204.371094 192.367188 204.375 192.089844 204.332031 C 191.808594 204.289062 191.546875 204.203125 191.304688 204.078125 C 191.058594 203.949219 190.851562 203.789062 190.679688 203.597656 C 190.503906 203.40625 190.382812 203.195312 190.308594 202.964844 C 190.234375 202.738281 190.214844 202.507812 190.25 202.277344 C 190.285156 202.050781 190.371094 201.835938 190.511719 201.640625 C 190.648438 201.445312 190.832031 201.28125 191.050781 201.148438 C 191.273438 201.015625 191.523438 200.925781 191.792969 200.875 C 192.0625 200.828125 192.339844 200.824219 192.617188 200.867188 Z M 192.617188 200.867188 " fill-opacity="1" fill-rule="nonzero"/><path fill="#f59f25" d="M 184.578125 197.21875 C 184.910156 197.265625 185.21875 197.367188 185.503906 197.519531 C 185.792969 197.667969 186.039062 197.859375 186.242188 198.085938 C 186.449219 198.3125 186.59375 198.5625 186.679688 198.832031 C 186.769531 199.101562 186.792969 199.371094 186.75 199.644531 C 186.707031 199.917969 186.605469 200.167969 186.441406 200.398438 C 186.277344 200.632812 186.0625 200.824219 185.800781 200.980469 C 185.539062 201.136719 185.246094 201.246094 184.925781 201.304688 C 184.609375 201.359375 184.28125 201.363281 183.953125 201.3125 C 183.625 201.261719 183.316406 201.164062 183.027344 201.011719 C 182.738281 200.863281 182.492188 200.671875 182.289062 200.445312 C 182.085938 200.21875 181.9375 199.96875 181.851562 199.699219 C 181.761719 199.429688 181.738281 199.15625 181.78125 198.886719 C 181.824219 198.613281 181.925781 198.363281 182.089844 198.132812 C 182.253906 197.898438 182.46875 197.707031 182.730469 197.550781 C 182.992188 197.394531 183.285156 197.285156 183.605469 197.226562 C 183.925781 197.171875 184.25 197.167969 184.578125 197.21875 Z M 184.578125 197.21875 " fill-opacity="1" fill-rule="nonzero"/><path fill="#f59f25" d="M 176.070312 211.847656 C 176.300781 211.882812 176.519531 211.953125 176.71875 212.058594 C 176.921875 212.164062 177.09375 212.296875 177.238281 212.457031 C 177.378906 212.613281 177.480469 212.789062 177.542969 212.976562 C 177.605469 213.164062 177.621094 213.355469 177.59375 213.542969 C 177.5625 213.734375 177.492188 213.910156 177.375 214.070312 C 177.261719 214.234375 177.113281 214.371094 176.929688 214.480469 C 176.746094 214.589844 176.539062 214.664062 176.316406 214.703125 C 176.09375 214.742188 175.863281 214.746094 175.632812 214.710938 C 175.402344 214.675781 175.1875 214.605469 174.984375 214.5 C 174.78125 214.394531 174.609375 214.261719 174.46875 214.101562 C 174.324219 213.945312 174.222656 213.769531 174.160156 213.582031 C 174.097656 213.394531 174.082031 213.203125 174.113281 213.011719 C 174.140625 212.824219 174.210938 212.648438 174.328125 212.484375 C 174.441406 212.324219 174.59375 212.1875 174.777344 212.078125 C 174.960938 211.96875 175.164062 211.894531 175.386719 211.855469 C 175.613281 211.816406 175.839844 211.8125 176.070312 211.847656 Z M 176.070312 211.847656 " fill-opacity="1" fill-rule="nonzero"/><path fill="#f59f25" d="M 175.230469 201.109375 C 175.464844 201.144531 175.683594 201.214844 175.886719 201.324219 C 176.089844 201.429688 176.265625 201.5625 176.40625 201.722656 C 176.550781 201.882812 176.652344 202.058594 176.714844 202.25 C 176.777344 202.441406 176.792969 202.632812 176.765625 202.824219 C 176.734375 203.015625 176.664062 203.191406 176.546875 203.355469 C 176.429688 203.519531 176.28125 203.65625 176.09375 203.765625 C 175.910156 203.875 175.703125 203.953125 175.476562 203.992188 C 175.253906 204.03125 175.023438 204.035156 174.789062 204 C 174.558594 203.964844 174.339844 203.894531 174.136719 203.789062 C 173.933594 203.679688 173.757812 203.546875 173.613281 203.386719 C 173.46875 203.226562 173.367188 203.050781 173.304688 202.859375 C 173.242188 202.667969 173.226562 202.480469 173.257812 202.285156 C 173.285156 202.09375 173.359375 201.917969 173.472656 201.753906 C 173.589844 201.589844 173.742188 201.453125 173.925781 201.34375 C 174.113281 201.234375 174.316406 201.15625 174.542969 201.117188 C 174.769531 201.078125 175 201.074219 175.230469 201.109375 Z M 175.230469 201.109375 " fill-opacity="1" fill-rule="nonzero"/><path fill="#f59f25" d="M 169.515625 206.34375 C 169.675781 206.371094 169.824219 206.417969 169.964844 206.492188 C 170.105469 206.566406 170.222656 206.65625 170.324219 206.765625 C 170.421875 206.878906 170.492188 207 170.535156 207.128906 C 170.578125 207.261719 170.589844 207.394531 170.570312 207.527344 C 170.546875 207.65625 170.5 207.78125 170.417969 207.894531 C 170.339844 208.003906 170.234375 208.101562 170.109375 208.175781 C 169.980469 208.253906 169.839844 208.304688 169.683594 208.332031 C 169.527344 208.359375 169.371094 208.363281 169.210938 208.335938 C 169.050781 208.3125 168.898438 208.265625 168.757812 208.191406 C 168.621094 208.117188 168.5 208.027344 168.402344 207.914062 C 168.300781 207.804688 168.230469 207.683594 168.1875 207.550781 C 168.144531 207.421875 168.132812 207.289062 168.15625 207.15625 C 168.175781 207.023438 168.226562 206.902344 168.304688 206.789062 C 168.386719 206.675781 168.488281 206.582031 168.617188 206.507812 C 168.742188 206.429688 168.886719 206.378906 169.039062 206.351562 C 169.195312 206.324219 169.355469 206.320312 169.515625 206.34375 Z M 169.515625 206.34375 " fill-opacity="1" fill-rule="nonzero"/><path fill="#f59f25" d="M 166.046875 212.882812 C 166.207031 212.90625 166.359375 212.957031 166.5 213.03125 C 166.640625 213.101562 166.757812 213.195312 166.859375 213.304688 C 166.957031 213.414062 167.027344 213.535156 167.070312 213.667969 C 167.113281 213.800781 167.125 213.929688 167.105469 214.0625 C 167.082031 214.195312 167.035156 214.316406 166.953125 214.429688 C 166.875 214.542969 166.769531 214.636719 166.644531 214.714844 C 166.515625 214.789062 166.375 214.84375 166.21875 214.871094 C 166.0625 214.898438 165.90625 214.898438 165.746094 214.875 C 165.585938 214.851562 165.433594 214.800781 165.292969 214.730469 C 165.152344 214.65625 165.035156 214.5625 164.933594 214.453125 C 164.835938 214.34375 164.765625 214.222656 164.722656 214.089844 C 164.679688 213.960938 164.667969 213.828125 164.691406 213.695312 C 164.710938 213.5625 164.761719 213.441406 164.839844 213.328125 C 164.917969 213.214844 165.023438 213.121094 165.152344 213.042969 C 165.277344 212.96875 165.417969 212.917969 165.574219 212.890625 C 165.730469 212.859375 165.890625 212.859375 166.046875 212.882812 Z M 166.046875 212.882812 " fill-opacity="1" fill-rule="nonzero"/><path fill="#f59f25" d="M 147.523438 132.949219 C 147.523438 133.269531 147.492188 133.589844 147.429688 133.902344 C 147.367188 134.21875 147.277344 134.523438 147.152344 134.820312 C 147.03125 135.117188 146.878906 135.398438 146.699219 135.664062 C 146.523438 135.933594 146.320312 136.179688 146.09375 136.40625 C 145.867188 136.632812 145.617188 136.835938 145.351562 137.015625 C 145.085938 137.191406 144.800781 137.34375 144.503906 137.464844 C 144.210938 137.589844 143.902344 137.679688 143.589844 137.746094 C 143.273438 137.808594 142.953125 137.839844 142.632812 137.839844 C 142.3125 137.839844 141.996094 137.808594 141.679688 137.746094 C 141.363281 137.679688 141.058594 137.589844 140.761719 137.464844 C 140.464844 137.34375 140.183594 137.191406 139.917969 137.015625 C 139.648438 136.835938 139.402344 136.632812 139.175781 136.40625 C 138.949219 136.179688 138.746094 135.933594 138.566406 135.664062 C 138.386719 135.398438 138.238281 135.117188 138.113281 134.820312 C 137.992188 134.523438 137.898438 134.21875 137.835938 133.902344 C 137.773438 133.589844 137.742188 133.269531 137.742188 132.949219 C 137.742188 132.628906 137.773438 132.308594 137.835938 131.996094 C 137.898438 131.679688 137.992188 131.375 138.113281 131.078125 C 138.238281 130.78125 138.386719 130.5 138.566406 130.234375 C 138.746094 129.964844 138.949219 129.71875 139.175781 129.492188 C 139.402344 129.265625 139.648438 129.0625 139.917969 128.882812 C 140.183594 128.707031 140.464844 128.554688 140.761719 128.433594 C 141.058594 128.308594 141.363281 128.21875 141.679688 128.15625 C 141.996094 128.09375 142.3125 128.058594 142.632812 128.058594 C 142.953125 128.058594 143.273438 128.09375 143.589844 128.15625 C 143.902344 128.21875 144.210938 128.308594 144.503906 128.433594 C 144.800781 128.554688 145.085938 128.707031 145.351562 128.882812 C 145.617188 129.0625 145.867188 129.265625 146.09375 129.492188 C 146.320312 129.71875 146.523438 129.964844 146.699219 130.234375 C 146.878906 130.5 147.03125 130.78125 147.152344 131.078125 C 147.277344 131.375 147.367188 131.679688 147.429688 131.996094 C 147.492188 132.308594 147.523438 132.628906 147.523438 132.949219 Z M 147.523438 132.949219 " fill-opacity="1" fill-rule="nonzero"/><path fill="#f59f25" d="M 188.773438 95.03125 C 188.773438 95.445312 188.730469 95.859375 188.652344 96.265625 C 188.570312 96.671875 188.449219 97.070312 188.289062 97.453125 C 188.132812 97.835938 187.9375 98.203125 187.703125 98.546875 C 187.472656 98.894531 187.210938 99.210938 186.917969 99.507812 C 186.625 99.800781 186.304688 100.0625 185.957031 100.292969 C 185.613281 100.523438 185.246094 100.71875 184.863281 100.878906 C 184.480469 101.039062 184.082031 101.15625 183.675781 101.238281 C 183.265625 101.320312 182.855469 101.359375 182.441406 101.359375 C 182.023438 101.359375 181.613281 101.320312 181.203125 101.238281 C 180.796875 101.15625 180.402344 101.039062 180.015625 100.878906 C 179.632812 100.71875 179.265625 100.523438 178.921875 100.292969 C 178.574219 100.0625 178.253906 99.800781 177.960938 99.507812 C 177.667969 99.210938 177.40625 98.894531 177.175781 98.546875 C 176.941406 98.203125 176.75 97.835938 176.589844 97.453125 C 176.429688 97.070312 176.308594 96.671875 176.230469 96.265625 C 176.148438 95.859375 176.105469 95.445312 176.105469 95.03125 C 176.105469 94.613281 176.148438 94.203125 176.230469 93.796875 C 176.308594 93.386719 176.429688 92.992188 176.589844 92.609375 C 176.75 92.226562 176.941406 91.859375 177.175781 91.515625 C 177.40625 91.167969 177.667969 90.847656 177.960938 90.554688 C 178.253906 90.261719 178.574219 90 178.921875 89.769531 C 179.265625 89.539062 179.632812 89.34375 180.015625 89.183594 C 180.402344 89.023438 180.796875 88.902344 181.203125 88.824219 C 181.613281 88.742188 182.023438 88.703125 182.441406 88.703125 C 182.855469 88.703125 183.265625 88.742188 183.675781 88.824219 C 184.082031 88.902344 184.480469 89.023438 184.863281 89.183594 C 185.246094 89.34375 185.613281 89.539062 185.957031 89.769531 C 186.304688 90 186.625 90.261719 186.917969 90.554688 C 187.210938 90.847656 187.472656 91.167969 187.703125 91.515625 C 187.9375 91.859375 188.132812 92.226562 188.289062 92.609375 C 188.449219 92.992188 188.570312 93.386719 188.652344 93.796875 C 188.730469 94.203125 188.773438 94.613281 188.773438 95.03125 Z M 188.773438 95.03125 " fill-opacity="1" fill-rule="nonzero"/><path fill="#f59f25" d="M 158.984375 160.890625 C 152.585938 169.613281 147.035156 178.863281 142.320312 188.457031 C 138.671875 195.851562 135.507812 203.445312 132.792969 211.164062 C 131.4375 215.015625 130.21875 218.917969 129.089844 222.835938 C 128.945312 223.324219 128.789062 223.808594 128.667969 224.304688 L 128.285156 225.78125 L 127.519531 228.730469 C 127.265625 229.71875 126.988281 230.691406 126.765625 231.683594 L 126.105469 234.65625 C 125.207031 238.625 124.429688 242.617188 123.792969 246.613281 L 122.527344 241.398438 L 116.835938 217.828125 C 118.589844 214.03125 120.425781 210.277344 122.386719 206.59375 C 126.433594 198.972656 130.90625 191.621094 135.804688 184.597656 C 142.265625 175.296875 149.511719 166.597656 157.441406 158.679688 C 157.472656 158.855469 157.519531 159.027344 157.605469 159.1875 C 157.960938 159.882812 158.421875 160.417969 158.984375 160.890625 Z M 158.984375 160.890625 " fill-opacity="1" fill-rule="nonzero"/><path fill="#e8561f" d="M 154.675781 161.460938 C 152.699219 163.644531 146.9375 162.757812 143.570312 165.441406 C 141.136719 167.378906 139.28125 170.9375 140.945312 173.726562 C 141.035156 171.933594 142.789062 170.476562 143.351562 169.867188 C 144.480469 168.613281 145.714844 168.746094 146.042969 169.230469 C 146.296875 169.605469 145.019531 170.832031 143.910156 172.058594 C 140.40625 175.941406 141.058594 180.441406 140.675781 183.285156 C 143.324219 182.414062 147.511719 183.179688 151.253906 179.042969 C 153.878906 176.132812 154.035156 176.152344 154.488281 176.5 C 154.945312 176.847656 154.589844 178.707031 153.859375 179.511719 C 153.125 180.320312 151.800781 181.410156 150.324219 181.957031 C 152.203125 182.894531 155.632812 181.796875 158.003906 179.175781 C 161.53125 175.273438 158.019531 171.089844 161.304688 167.449219 C 157.351562 163.878906 154.675781 161.460938 154.675781 161.460938 Z M 154.675781 161.460938 " fill-opacity="1" fill-rule="nonzero"/><path fill="#f6b45b" d="M 145.039062 178.566406 C 149.734375 177.773438 153.914062 171.945312 157.414062 166.164062 C 160.914062 160.378906 158.777344 163.941406 156.351562 165.207031 C 153.921875 166.460938 145.140625 173.445312 145.039062 178.566406 Z M 145.039062 178.566406 " fill-opacity="1" fill-rule="nonzero"/><path fill="#f6e7c7" d="M 148.960938 174.246094 C 152.957031 172.820312 157.324219 167.164062 161.128906 161.65625 C 164.933594 156.152344 162.605469 159.535156 160.402344 161.003906 C 158.210938 162.46875 149.859375 169.839844 148.960938 174.246094 Z M 148.960938 174.246094 " fill-opacity="1" fill-rule="nonzero"/><path fill="#2d486d" d="M 176.46875 168.265625 C 176.226562 166.875 175.816406 165.503906 175.242188 164.191406 L 164.683594 171.109375 C 165.847656 175.777344 165.097656 180.84375 162.378906 185.058594 C 161.902344 185.796875 161.328125 186.550781 160.722656 187.230469 L 162.304688 188.664062 L 162.425781 188.777344 C 162.652344 188.734375 162.882812 188.683594 163.109375 188.628906 C 166.480469 187.820312 169.648438 186.023438 172.144531 183.265625 C 175.964844 179.027344 177.378906 173.472656 176.46875 168.265625 Z M 176.46875 168.265625 " fill-opacity="1" fill-rule="nonzero"/><path fill="#2d486d" d="M 151.679688 145.882812 C 146.402344 145.507812 141.015625 147.472656 137.203125 151.695312 C 134.703125 154.457031 133.234375 157.789062 132.773438 161.226562 C 132.738281 161.460938 132.714844 161.6875 132.695312 161.921875 L 132.816406 162.035156 L 134.398438 163.46875 C 135.015625 162.800781 135.703125 162.15625 136.394531 161.601562 C 140.304688 158.464844 145.273438 157.210938 150.039062 157.890625 L 155.851562 146.695312 C 154.488281 146.253906 153.085938 145.984375 151.679688 145.882812 Z M 151.679688 145.882812 " fill-opacity="1" fill-rule="nonzero"/><path fill="#2d486d" d="M 146.390625 158.714844 L 143.628906 162.90625 L 160.339844 177.992188 L 164.230469 174.820312 Z M 146.390625 158.714844 " fill-opacity="1" fill-rule="nonzero"/><path fill="#8fcfdb" d="M 153.6875 144.195312 C 151.023438 148.433594 148.441406 153.15625 145.890625 158.402344 L 164.597656 175.289062 C 169.5625 172.222656 174 169.171875 177.953125 166.09375 C 173.6875 163.199219 169.328125 159.769531 165.097656 155.945312 C 160.863281 152.121094 157.003906 148.140625 153.6875 144.195312 Z M 153.6875 144.195312 " fill-opacity="1" fill-rule="nonzero"/><path fill="#4abbca" d="M 202.792969 130.105469 C 200.023438 128.636719 196.972656 126.457031 194.089844 123.851562 C 191.199219 121.242188 188.730469 118.453125 186.984375 115.835938 C 174.332031 119.878906 164.222656 128.179688 155.078125 142.015625 C 158.421875 146.070312 162.371094 150.175781 166.734375 154.117188 C 171.09375 158.054688 175.589844 161.566406 179.953125 164.480469 C 192.8125 153.988281 200.054688 143.097656 202.792969 130.105469 Z M 202.792969 130.105469 " fill-opacity="1" fill-rule="nonzero"/><path fill="#ffffff" d="M 155.085938 142.023438 C 154.617188 142.734375 154.148438 143.457031 153.6875 144.195312 C 157.003906 148.148438 160.859375 152.128906 165.089844 155.953125 C 169.320312 159.777344 173.679688 163.203125 177.945312 166.101562 C 178.632812 165.566406 179.308594 165.027344 179.960938 164.488281 C 175.589844 161.574219 171.101562 158.066406 166.742188 154.121094 C 162.378906 150.175781 158.429688 146.074219 155.085938 142.023438 Z M 155.085938 142.023438 " fill-opacity="0.8" fill-rule="nonzero"/><path fill="#7f4621" d="M 185.980469 132.828125 C 186.5 133.296875 186.972656 133.8125 187.390625 134.375 C 187.808594 134.933594 188.167969 135.53125 188.46875 136.164062 C 188.769531 136.796875 189.003906 137.453125 189.175781 138.132812 C 189.347656 138.8125 189.449219 139.5 189.484375 140.199219 C 189.523438 140.898438 189.488281 141.59375 189.386719 142.289062 C 189.285156 142.980469 189.117188 143.65625 188.882812 144.316406 C 188.648438 144.976562 188.351562 145.605469 187.992188 146.207031 C 187.632812 146.808594 187.21875 147.371094 186.746094 147.890625 C 186.277344 148.410156 185.761719 148.878906 185.199219 149.296875 C 184.636719 149.714844 184.039062 150.074219 183.40625 150.375 C 182.773438 150.675781 182.117188 150.910156 181.441406 151.082031 C 180.761719 151.253906 180.070312 151.355469 179.371094 151.390625 C 178.671875 151.425781 177.976562 151.394531 177.28125 151.292969 C 176.589844 151.191406 175.910156 151.023438 175.25 150.789062 C 174.59375 150.554688 173.960938 150.257812 173.359375 149.898438 C 172.757812 149.539062 172.195312 149.125 171.675781 148.65625 C 171.15625 148.1875 170.6875 147.671875 170.269531 147.109375 C 169.851562 146.546875 169.492188 145.949219 169.191406 145.316406 C 168.890625 144.683594 168.65625 144.027344 168.484375 143.351562 C 168.3125 142.671875 168.207031 141.980469 168.171875 141.28125 C 168.136719 140.582031 168.171875 139.886719 168.273438 139.195312 C 168.375 138.5 168.542969 137.824219 168.777344 137.164062 C 169.011719 136.503906 169.308594 135.875 169.667969 135.273438 C 170.027344 134.671875 170.441406 134.113281 170.910156 133.59375 C 171.378906 133.074219 171.898438 132.605469 172.457031 132.1875 C 173.019531 131.769531 173.617188 131.410156 174.25 131.109375 C 174.882812 130.808594 175.539062 130.570312 176.21875 130.398438 C 176.898438 130.230469 177.589844 130.125 178.289062 130.089844 C 178.988281 130.054688 179.683594 130.085938 180.378906 130.1875 C 181.070312 130.289062 181.746094 130.457031 182.40625 130.695312 C 183.066406 130.929688 183.699219 131.226562 184.300781 131.585938 C 184.902344 131.941406 185.460938 132.355469 185.980469 132.828125 Z M 185.980469 132.828125 " fill-opacity="0.1" fill-rule="nonzero"/><path fill="#ffffff" d="M 186.617188 132.117188 C 187.140625 132.585938 187.609375 133.101562 188.027344 133.664062 C 188.445312 134.226562 188.804688 134.824219 189.105469 135.457031 C 189.40625 136.089844 189.640625 136.742188 189.8125 137.421875 C 189.984375 138.101562 190.085938 138.792969 190.125 139.492188 C 190.160156 140.191406 190.125 140.886719 190.023438 141.578125 C 189.921875 142.273438 189.753906 142.949219 189.519531 143.609375 C 189.285156 144.265625 188.988281 144.898438 188.628906 145.5 C 188.269531 146.101562 187.855469 146.660156 187.386719 147.179688 C 186.914062 147.699219 186.398438 148.167969 185.835938 148.585938 C 185.277344 149.003906 184.679688 149.363281 184.046875 149.664062 C 183.414062 149.964844 182.757812 150.203125 182.078125 150.371094 C 181.398438 150.542969 180.707031 150.648438 180.007812 150.683594 C 179.308594 150.71875 178.613281 150.683594 177.917969 150.582031 C 177.226562 150.480469 176.550781 150.3125 175.890625 150.078125 C 175.230469 149.84375 174.597656 149.546875 173.996094 149.1875 C 173.394531 148.828125 172.835938 148.414062 172.316406 147.945312 C 171.792969 147.476562 171.324219 146.960938 170.90625 146.398438 C 170.488281 145.835938 170.128906 145.242188 169.828125 144.609375 C 169.527344 143.976562 169.292969 143.320312 169.121094 142.640625 C 168.949219 141.960938 168.847656 141.273438 168.808594 140.574219 C 168.773438 139.875 168.808594 139.179688 168.910156 138.484375 C 169.011719 137.792969 169.179688 137.117188 169.414062 136.457031 C 169.648438 135.796875 169.945312 135.167969 170.304688 134.566406 C 170.664062 133.964844 171.078125 133.402344 171.546875 132.882812 C 172.019531 132.363281 172.535156 131.894531 173.097656 131.476562 C 173.65625 131.058594 174.253906 130.699219 174.886719 130.398438 C 175.519531 130.097656 176.175781 129.863281 176.855469 129.691406 C 177.535156 129.519531 178.226562 129.417969 178.925781 129.382812 C 179.625 129.34375 180.320312 129.378906 181.015625 129.480469 C 181.707031 129.582031 182.382812 129.75 183.042969 129.984375 C 183.703125 130.21875 184.335938 130.515625 184.9375 130.875 C 185.539062 131.234375 186.097656 131.648438 186.617188 132.117188 Z M 186.617188 132.117188 " fill-opacity="0.8" fill-rule="nonzero"/><path fill="#f59f25" d="M 184.222656 134.773438 C 184.566406 135.082031 184.878906 135.425781 185.15625 135.800781 C 185.433594 136.171875 185.671875 136.570312 185.871094 136.992188 C 186.074219 137.410156 186.230469 137.847656 186.34375 138.296875 C 186.457031 138.75 186.527344 139.207031 186.550781 139.671875 C 186.574219 140.136719 186.550781 140.601562 186.484375 141.058594 C 186.417969 141.519531 186.304688 141.96875 186.148438 142.410156 C 185.992188 142.847656 185.792969 143.265625 185.554688 143.664062 C 185.316406 144.066406 185.042969 144.4375 184.730469 144.785156 C 184.417969 145.128906 184.074219 145.441406 183.703125 145.71875 C 183.328125 145.996094 182.929688 146.234375 182.511719 146.433594 C 182.089844 146.632812 181.652344 146.792969 181.203125 146.90625 C 180.75 147.019531 180.292969 147.085938 179.828125 147.109375 C 179.363281 147.136719 178.898438 147.113281 178.4375 147.046875 C 177.976562 146.976562 177.527344 146.867188 177.089844 146.710938 C 176.648438 146.554688 176.230469 146.355469 175.832031 146.117188 C 175.429688 145.878906 175.058594 145.605469 174.714844 145.292969 C 174.367188 144.980469 174.054688 144.636719 173.777344 144.265625 C 173.5 143.890625 173.261719 143.492188 173.0625 143.074219 C 172.859375 142.652344 172.703125 142.21875 172.589844 141.765625 C 172.476562 141.316406 172.40625 140.855469 172.382812 140.390625 C 172.359375 139.925781 172.382812 139.464844 172.449219 139.003906 C 172.515625 138.542969 172.628906 138.09375 172.785156 137.65625 C 172.941406 137.21875 173.140625 136.796875 173.378906 136.398438 C 173.617188 136 173.890625 135.625 174.203125 135.28125 C 174.515625 134.933594 174.859375 134.625 175.230469 134.34375 C 175.605469 134.066406 176.003906 133.828125 176.421875 133.628906 C 176.84375 133.429688 177.28125 133.273438 177.730469 133.160156 C 178.183594 133.046875 178.640625 132.976562 179.105469 132.953125 C 179.570312 132.929688 180.035156 132.949219 180.496094 133.019531 C 180.957031 133.085938 181.40625 133.199219 181.84375 133.355469 C 182.285156 133.511719 182.703125 133.707031 183.101562 133.945312 C 183.503906 134.183594 183.875 134.460938 184.222656 134.773438 Z M 184.222656 134.773438 " fill-opacity="1" fill-rule="nonzero"/><path fill="#7f4621" d="M 186.550781 140.414062 C 186.308594 138.859375 185.554688 137.378906 184.300781 136.242188 C 181.390625 133.617188 176.910156 133.84375 174.28125 136.753906 C 173.148438 138.007812 172.542969 139.5625 172.464844 141.128906 C 172.144531 139.09375 172.722656 136.9375 174.210938 135.285156 C 176.839844 132.375 181.324219 132.148438 184.230469 134.773438 C 185.875 136.261719 186.664062 138.355469 186.550781 140.414062 Z M 186.550781 140.414062 " fill-opacity="0.1" fill-rule="nonzero"/><path fill="#2d486d" d="M 202.742188 130.074219 C 202.53125 130.308594 202.195312 130.378906 201.921875 130.273438 C 201.847656 130.230469 201.777344 130.1875 201.699219 130.148438 C 199.128906 128.648438 196.375 126.613281 193.75 124.242188 C 191.113281 121.867188 188.820312 119.347656 187.070312 116.933594 C 187.019531 116.863281 186.960938 116.792969 186.914062 116.722656 C 186.785156 116.453125 186.820312 116.125 187.03125 115.882812 C 187.097656 115.8125 187.167969 115.757812 187.246094 115.722656 C 187.339844 115.691406 187.429688 115.664062 187.523438 115.644531 C 192.316406 114.265625 197.441406 113.4375 202.992188 113.101562 C 203.070312 113.097656 203.148438 113.097656 203.226562 113.089844 C 203.382812 113.101562 203.53125 113.167969 203.660156 113.28125 C 203.78125 113.394531 203.867188 113.535156 203.894531 113.691406 C 203.894531 113.769531 203.902344 113.855469 203.902344 113.933594 C 204.128906 119.488281 203.824219 124.691406 202.933594 129.601562 C 202.921875 129.671875 202.90625 129.734375 202.898438 129.804688 C 202.863281 129.90625 202.816406 129.992188 202.742188 130.074219 Z M 202.742188 130.074219 " fill-opacity="1" fill-rule="nonzero"/><path fill="#ffffff" d="M 179.914062 135.566406 C 179.402344 135.597656 180.027344 137.800781 180.167969 140.554688 C 180.308594 143.308594 179.90625 145.566406 180.421875 145.542969 C 183.179688 145.402344 185.300781 143.058594 185.160156 140.308594 C 185.015625 137.554688 182.667969 135.433594 179.914062 135.566406 Z M 179.914062 135.566406 " fill-opacity="0.8" fill-rule="nonzero"/><path fill="#ffffff" d="M 147.625 165.980469 L 146.304688 164.789062 C 146 164.515625 145.976562 164.042969 146.253906 163.742188 L 147.945312 161.871094 C 148.214844 161.566406 148.691406 161.542969 148.988281 161.820312 L 150.308594 163.011719 C 150.613281 163.28125 150.636719 163.757812 150.359375 164.054688 L 148.667969 165.929688 C 148.390625 166.226562 147.921875 166.25 147.625 165.980469 Z M 147.625 165.980469 " fill-opacity="0.8" fill-rule="nonzero"/><path fill="#ffffff" d="M 202.238281 113.933594 C 203.957031 112.777344 190.371094 115.671875 189.011719 116.699219 C 187.65625 117.730469 190.449219 120.21875 191.058594 120.367188 C 192.363281 120.695312 201.882812 114.175781 202.238281 113.933594 Z M 202.238281 113.933594 " fill-opacity="0.8" fill-rule="nonzero"/><path fill="#dd866b" d="M 231.410156 133.765625 L 245.652344 124.867188 L 278.210938 133.765625 L 288.382812 171.648438 L 270.328125 171.648438 Z M 231.410156 133.765625 " fill-opacity="1" fill-rule="nonzero"/><path fill="#dd866b" d="M 230.386719 143.175781 C 229.878906 153.597656 228.351562 177.75 229.878906 180.289062 C 231.402344 182.832031 237.253906 181.816406 242.34375 176.226562 C 242.597656 184.109375 243.101562 193.261719 245.140625 194.78125 C 247.179688 196.304688 252.261719 196.816406 253.789062 189.949219 C 255.3125 183.078125 256.328125 165.035156 256.328125 165.035156 Z M 230.386719 143.175781 " fill-opacity="1" fill-rule="nonzero"/><path fill="#f39d7c" d="M 209.027344 150.035156 C 210.488281 151.867188 216.402344 154.613281 220.46875 152.320312 C 224.539062 150.035156 243.367188 133.511719 247.6875 133.765625 C 252.011719 134.019531 262.441406 136.816406 264.480469 138.851562 C 266.515625 140.890625 276.945312 167.832031 276.945312 167.832031 C 276.945312 167.832031 312.300781 173.167969 309.757812 163.765625 C 307.21875 154.355469 301.113281 127.917969 296.53125 124.613281 C 291.953125 121.304688 256.085938 112.40625 248.710938 113.679688 C 241.335938 114.949219 220.519531 133.089844 218.71875 133.550781 C 216.914062 134.019531 208.011719 148.765625 209.027344 150.035156 Z M 209.027344 150.035156 " fill-opacity="1" fill-rule="nonzero"/><path fill="#47536b" d="M 350.410156 90.792969 L 212.214844 136.605469 C 212.03125 136.667969 211.851562 136.730469 211.683594 136.808594 C 211.566406 136.867188 211.449219 136.921875 211.339844 136.988281 L 210.964844 137.214844 L 195.742188 146.472656 C 195.324219 146.707031 195.113281 147.21875 195.269531 147.695312 C 195.425781 148.167969 195.898438 148.453125 196.375 148.390625 L 214.125 146.722656 L 214.5625 146.679688 C 214.691406 146.664062 214.820312 146.644531 214.941406 146.617188 C 215.125 146.574219 215.308594 146.523438 215.488281 146.464844 L 353.683594 100.65625 C 356.40625 99.757812 357.890625 96.8125 356.984375 94.085938 C 356.082031 91.371094 353.136719 89.886719 350.410156 90.792969 Z M 350.410156 90.792969 " fill-opacity="1" fill-rule="nonzero"/><path fill="#268ba7" d="M 339.714844 210.3125 C 339.769531 210.363281 339.796875 210.445312 339.792969 210.554688 C 339.792969 210.667969 339.761719 210.804688 339.703125 210.972656 C 339.644531 211.144531 339.558594 211.339844 339.445312 211.5625 C 339.332031 211.785156 339.191406 212.039062 339.019531 212.316406 C 338.851562 212.59375 338.65625 212.894531 338.433594 213.222656 C 338.210938 213.554688 337.964844 213.90625 337.691406 214.28125 C 337.417969 214.660156 337.121094 215.058594 336.796875 215.476562 C 336.476562 215.898438 336.132812 216.339844 335.765625 216.800781 C 335.398438 217.261719 335.011719 217.738281 334.601562 218.234375 C 334.195312 218.730469 333.765625 219.246094 333.320312 219.773438 C 332.875 220.300781 332.410156 220.839844 331.929688 221.394531 C 331.449219 221.945312 330.957031 222.507812 330.445312 223.082031 C 329.9375 223.65625 329.417969 224.238281 328.882812 224.828125 C 328.351562 225.417969 327.808594 226.007812 327.257812 226.609375 C 326.703125 227.207031 326.144531 227.804688 325.582031 228.40625 C 325.015625 229.007812 324.445312 229.609375 323.871094 230.210938 C 323.300781 230.808594 322.722656 231.402344 322.148438 231.996094 C 321.574219 232.585938 320.996094 233.171875 320.425781 233.75 C 319.851562 234.328125 319.28125 234.894531 318.71875 235.453125 C 318.152344 236.011719 317.59375 236.558594 317.042969 237.09375 C 316.496094 237.625 315.953125 238.144531 315.421875 238.648438 C 314.890625 239.152344 314.371094 239.640625 313.863281 240.109375 C 313.355469 240.578125 312.863281 241.027344 312.386719 241.457031 C 311.90625 241.890625 311.445312 242.296875 311.003906 242.683594 C 310.558594 243.070312 310.132812 243.433594 309.726562 243.773438 C 309.320312 244.113281 308.9375 244.429688 308.574219 244.71875 C 308.207031 245.007812 307.867188 245.273438 307.546875 245.507812 C 307.230469 245.746094 306.9375 245.953125 306.664062 246.136719 C 306.394531 246.316406 306.152344 246.46875 305.933594 246.59375 C 305.714844 246.71875 305.523438 246.8125 305.355469 246.878906 C 305.191406 246.945312 305.054688 246.980469 304.941406 246.988281 C 304.832031 246.992188 304.75 246.972656 304.695312 246.917969 C 304.640625 246.867188 304.613281 246.785156 304.617188 246.675781 C 304.617188 246.5625 304.648438 246.425781 304.707031 246.257812 C 304.765625 246.089844 304.851562 245.890625 304.964844 245.667969 C 305.078125 245.445312 305.21875 245.195312 305.390625 244.914062 C 305.558594 244.636719 305.753906 244.335938 305.976562 244.007812 C 306.199219 243.679688 306.445312 243.324219 306.71875 242.949219 C 306.992188 242.574219 307.289062 242.175781 307.613281 241.753906 C 307.933594 241.332031 308.277344 240.890625 308.644531 240.429688 C 309.011719 239.96875 309.398438 239.492188 309.808594 238.996094 C 310.214844 238.5 310.644531 237.988281 311.089844 237.460938 C 311.535156 236.933594 312 236.390625 312.480469 235.839844 C 312.960938 235.285156 313.453125 234.722656 313.964844 234.148438 C 314.472656 233.574219 314.992188 232.992188 315.527344 232.402344 C 316.058594 231.816406 316.601562 231.222656 317.152344 230.625 C 317.707031 230.023438 318.265625 229.425781 318.828125 228.824219 C 319.394531 228.222656 319.964844 227.621094 320.539062 227.023438 C 321.109375 226.421875 321.6875 225.828125 322.261719 225.234375 C 322.835938 224.644531 323.414062 224.058594 323.984375 223.480469 C 324.558594 222.902344 325.128906 222.335938 325.691406 221.777344 C 326.257812 221.21875 326.816406 220.671875 327.367188 220.136719 C 327.917969 219.605469 328.457031 219.085938 328.988281 218.582031 C 329.519531 218.078125 330.039062 217.589844 330.546875 217.121094 C 331.054688 216.652344 331.546875 216.203125 332.023438 215.773438 C 332.503906 215.339844 332.964844 214.933594 333.40625 214.546875 C 333.851562 214.160156 334.277344 213.796875 334.683594 213.457031 C 335.089844 213.117188 335.472656 212.800781 335.835938 212.511719 C 336.203125 212.222656 336.542969 211.957031 336.863281 211.722656 C 337.179688 211.484375 337.472656 211.277344 337.746094 211.09375 C 338.015625 210.914062 338.257812 210.761719 338.476562 210.636719 C 338.695312 210.511719 338.886719 210.417969 339.054688 210.351562 C 339.21875 210.285156 339.355469 210.25 339.46875 210.242188 C 339.578125 210.238281 339.660156 210.257812 339.714844 210.3125 Z M 339.714844 210.3125 " fill-opacity="1" fill-rule="nonzero"/><path fill="#f39d7c" d="M 214.621094 122.582031 C 217.105469 119.269531 225.601562 119.140625 230.792969 124.546875 C 235.984375 129.953125 267.019531 160.210938 271.34375 159.445312 C 275.667969 158.683594 266.6875 143.160156 266.851562 143.292969 C 267.011719 143.429688 308.226562 155.121094 310.007812 163.765625 C 311.789062 172.40625 317.382812 187.917969 322.21875 195.035156 C 327.050781 202.152344 343.074219 221.472656 351.722656 226.304688 C 360.371094 231.136719 347.910156 297.742188 347.910156 297.742188 C 347.910156 297.742188 323.757812 262.324219 316.625 253.765625 C 307.722656 243.085938 291.8125 228.996094 283.300781 220.714844 C 255.152344 193.332031 250.210938 178.511719 241.3125 164.476562 C 228.328125 143.984375 211.566406 126.648438 214.621094 122.582031 Z M 214.621094 122.582031 " fill-opacity="1" fill-rule="nonzero"/><path fill="#f9ccb7" d="M 217.226562 121.105469 C 220.699219 121.519531 225.9375 129.386719 225.597656 131.351562 C 225.253906 133.316406 222.4375 135.496094 220.511719 134.53125 C 218.589844 133.574219 213.285156 125.050781 214.152344 122.988281 C 215.011719 120.9375 215.976562 120.957031 217.226562 121.105469 Z M 217.226562 121.105469 " fill-opacity="1" fill-rule="nonzero"/><g clip-path="url(#27e26665af)"><path fill="#4abbca" d="M 365.289062 230.925781 L 365.289062 325.21875 C 344.105469 298.355469 312.648438 257.539062 304.691406 246.933594 C 305.433594 246.742188 306.699219 245.9375 308.308594 244.695312 C 312.882812 241.171875 320.28125 234.074219 326.746094 227.164062 C 327.125 226.765625 327.492188 226.363281 327.855469 225.964844 C 330.523438 223.078125 332.996094 220.253906 334.976562 217.785156 C 335.066406 217.675781 335.160156 217.5625 335.246094 217.449219 C 336.246094 216.195312 337.113281 215.03125 337.816406 214.007812 C 338.914062 212.398438 339.597656 211.113281 339.71875 210.320312 C 340.945312 211.285156 351.898438 220.097656 365.289062 230.925781 Z M 365.289062 230.925781 " fill-opacity="1" fill-rule="nonzero"/></g><path fill="#268ba7" d="M 312.535156 248.316406 C 314.132812 249.722656 315.609375 251.246094 317.042969 252.792969 C 318.484375 254.339844 319.859375 255.9375 321.210938 257.570312 C 322.550781 259.195312 323.863281 260.855469 325.113281 262.558594 C 326.371094 264.253906 327.59375 265.984375 328.699219 267.800781 C 327.144531 266.347656 325.695312 264.804688 324.285156 263.238281 C 322.863281 261.675781 321.492188 260.074219 320.144531 258.449219 C 318.804688 256.824219 317.488281 255.171875 316.21875 253.488281 C 314.949219 251.808594 313.707031 250.097656 312.535156 248.316406 Z M 312.535156 248.316406 " fill-opacity="0.5" fill-rule="nonzero"/><path fill="#268ba7" d="M 320.039062 241.015625 C 321.707031 242.339844 323.261719 243.78125 324.773438 245.257812 C 326.292969 246.734375 327.75 248.257812 329.183594 249.8125 C 330.609375 251.375 332 252.957031 333.335938 254.59375 C 334.675781 256.226562 335.984375 257.894531 337.183594 259.65625 C 335.558594 258.277344 334.03125 256.816406 332.539062 255.320312 C 331.042969 253.828125 329.59375 252.296875 328.167969 250.742188 C 326.746094 249.1875 325.347656 247.605469 323.992188 245.988281 C 322.621094 244.371094 321.292969 242.730469 320.039062 241.015625 Z M 320.039062 241.015625 " fill-opacity="0.5" fill-rule="nonzero"/><path fill="#268ba7" d="M 327.542969 233.707031 C 329.261719 234.96875 330.863281 236.351562 332.433594 237.773438 C 334.007812 239.183594 335.523438 240.660156 337.003906 242.15625 C 338.488281 243.660156 339.9375 245.195312 341.335938 246.777344 C 342.742188 248.359375 344.113281 249.96875 345.375 251.6875 C 343.699219 250.375 342.117188 248.96875 340.570312 247.527344 C 339.015625 246.09375 337.507812 244.621094 336.027344 243.121094 C 334.542969 241.617188 333.085938 240.09375 331.675781 238.523438 C 330.253906 236.96875 328.863281 235.378906 327.542969 233.707031 Z M 327.542969 233.707031 " fill-opacity="0.5" fill-rule="nonzero"/><path fill="#268ba7" d="M 335.046875 226.40625 C 336.84375 227.554688 338.53125 228.832031 340.1875 230.152344 C 341.847656 231.464844 343.453125 232.832031 345.035156 234.238281 C 346.609375 235.644531 348.160156 237.082031 349.65625 238.574219 C 351.160156 240.058594 352.625 241.582031 354 243.214844 C 352.246094 242.007812 350.578125 240.710938 348.9375 239.367188 C 347.300781 238.042969 345.703125 236.664062 344.125 235.261719 C 342.550781 233.855469 341.003906 232.421875 339.492188 230.953125 C 337.957031 229.484375 336.464844 227.988281 335.046875 226.40625 Z M 335.046875 226.40625 " fill-opacity="0.5" fill-rule="nonzero"/><path fill="#268ba7" d="M 342.542969 219.105469 C 344.332031 220.265625 346.015625 221.550781 347.65625 222.878906 C 349.308594 224.199219 350.90625 225.582031 352.476562 226.992188 C 354.042969 228.40625 355.578125 229.859375 357.066406 231.359375 C 358.558594 232.855469 360.019531 234.386719 361.378906 236.027344 C 359.632812 234.8125 357.96875 233.5 356.34375 232.152344 C 354.710938 230.8125 353.121094 229.425781 351.550781 228.015625 C 349.988281 226.605469 348.449219 225.164062 346.945312 223.679688 C 345.441406 222.195312 343.960938 220.691406 342.542969 219.105469 Z M 342.542969 219.105469 " fill-opacity="0.5" fill-rule="nonzero"/></svg>