<svg xmlns="http://www.w3.org/2000/svg" xmlns:xlink="http://www.w3.org/1999/xlink" width="500" zoomAndPan="magnify" viewBox="0 0 375 374.999991" height="500" preserveAspectRatio="xMidYMid meet" version="1.0"><defs><clipPath id="881ca60a1a"><path d="M 62 22.734375 L 318 22.734375 L 318 51 L 62 51 Z M 62 22.734375 " clip-rule="nonzero"/></clipPath><clipPath id="834bd23222"><path d="M 62 50 L 318 50 L 318 306 L 62 306 Z M 62 50 " clip-rule="nonzero"/></clipPath><clipPath id="30d1facb13"><path d="M 62.09375 50.242188 L 317.773438 50.242188 L 317.773438 281.804688 C 317.773438 284.945312 317.15625 288.050781 315.953125 290.953125 C 314.75 293.851562 312.992188 296.484375 310.769531 298.707031 C 308.546875 300.925781 305.910156 302.6875 303.011719 303.886719 C 300.105469 305.085938 296.996094 305.707031 293.855469 305.707031 L 86.015625 305.707031 C 82.875 305.707031 79.761719 305.085938 76.859375 303.886719 C 73.957031 302.6875 71.320312 300.925781 69.101562 298.707031 C 66.878906 296.484375 65.117188 293.851562 63.914062 290.953125 C 62.710938 288.050781 62.09375 284.945312 62.09375 281.804688 Z M 62.09375 50.242188 " clip-rule="nonzero"/></clipPath><linearGradient x1="2460.587612" gradientTransform="matrix(0.0839998, 0, 0, 0.0839281, 0.0544311, 22.734379)" y1="50.043297" x2="3016.201613" gradientUnits="userSpaceOnUse" y2="3495.165669" id="1ad8e4d7ff"><stop stop-opacity="1" stop-color="rgb(85.400391%, 90.440369%, 100%)" offset="0"/><stop stop-opacity="1" stop-color="rgb(85.289001%, 90.367126%, 100%)" offset="0.015625"/><stop stop-opacity="1" stop-color="rgb(85.066223%, 90.220642%, 100%)" offset="0.03125"/><stop stop-opacity="1" stop-color="rgb(84.841919%, 90.075684%, 100%)" offset="0.046875"/><stop stop-opacity="1" stop-color="rgb(84.619141%, 89.929199%, 100%)" offset="0.0625"/><stop stop-opacity="1" stop-color="rgb(84.394836%, 89.782715%, 100%)" offset="0.078125"/><stop stop-opacity="1" stop-color="rgb(84.172058%, 89.63623%, 100%)" offset="0.09375"/><stop stop-opacity="1" stop-color="rgb(83.947754%, 89.489746%, 100%)" offset="0.109375"/><stop stop-opacity="1" stop-color="rgb(83.724976%, 89.343262%, 100%)" offset="0.125"/><stop stop-opacity="1" stop-color="rgb(83.500671%, 89.196777%, 100%)" offset="0.138877"/><stop stop-opacity="1" stop-color="rgb(83.389282%, 89.123535%, 100%)" offset="0.140625"/><stop stop-opacity="1" stop-color="rgb(83.277893%, 89.050293%, 100%)" offset="0.15625"/><stop stop-opacity="1" stop-color="rgb(83.055115%, 88.903809%, 100%)" offset="0.171875"/><stop stop-opacity="1" stop-color="rgb(82.830811%, 88.75885%, 100%)" offset="0.1875"/><stop stop-opacity="1" stop-color="rgb(82.608032%, 88.612366%, 100%)" offset="0.203125"/><stop stop-opacity="1" stop-color="rgb(82.383728%, 88.465881%, 100%)" offset="0.21875"/><stop stop-opacity="1" stop-color="rgb(82.16095%, 88.319397%, 100%)" offset="0.234375"/><stop stop-opacity="1" stop-color="rgb(81.936646%, 88.172913%, 100%)" offset="0.25"/><stop stop-opacity="1" stop-color="rgb(81.713867%, 88.026428%, 100%)" offset="0.265625"/><stop stop-opacity="1" stop-color="rgb(81.489563%, 87.879944%, 100%)" offset="0.28125"/><stop stop-opacity="1" stop-color="rgb(81.266785%, 87.733459%, 100%)" offset="0.296875"/><stop stop-opacity="1" stop-color="rgb(81.04248%, 87.586975%, 100%)" offset="0.3125"/><stop stop-opacity="1" stop-color="rgb(80.819702%, 87.442017%, 100%)" offset="0.328125"/><stop stop-opacity="1" stop-color="rgb(80.596924%, 87.295532%, 100%)" offset="0.34375"/><stop stop-opacity="1" stop-color="rgb(80.37262%, 87.149048%, 100%)" offset="0.359375"/><stop stop-opacity="1" stop-color="rgb(80.149841%, 87.002563%, 100%)" offset="0.375"/><stop stop-opacity="1" stop-color="rgb(79.925537%, 86.856079%, 100%)" offset="0.390625"/><stop stop-opacity="1" stop-color="rgb(79.702759%, 86.709595%, 100%)" offset="0.40625"/><stop stop-opacity="1" stop-color="rgb(79.478455%, 86.56311%, 100%)" offset="0.421875"/><stop stop-opacity="1" stop-color="rgb(79.255676%, 86.416626%, 100%)" offset="0.4375"/><stop stop-opacity="1" stop-color="rgb(79.031372%, 86.270142%, 100%)" offset="0.453125"/><stop stop-opacity="1" stop-color="rgb(78.808594%, 86.125183%, 100%)" offset="0.46875"/><stop stop-opacity="1" stop-color="rgb(78.58429%, 85.978699%, 100%)" offset="0.484375"/><stop stop-opacity="1" stop-color="rgb(78.361511%, 85.832214%, 100%)" offset="0.5"/><stop stop-opacity="1" stop-color="rgb(78.138733%, 85.68573%, 100%)" offset="0.515625"/><stop stop-opacity="1" stop-color="rgb(77.914429%, 85.539246%, 100%)" offset="0.53125"/><stop stop-opacity="1" stop-color="rgb(77.69165%, 85.392761%, 100%)" offset="0.546875"/><stop stop-opacity="1" stop-color="rgb(77.467346%, 85.246277%, 100%)" offset="0.5625"/><stop stop-opacity="1" stop-color="rgb(77.244568%, 85.099792%, 100%)" offset="0.578125"/><stop stop-opacity="1" stop-color="rgb(77.020264%, 84.953308%, 100%)" offset="0.59375"/><stop stop-opacity="1" stop-color="rgb(76.797485%, 84.80835%, 100%)" offset="0.609375"/><stop stop-opacity="1" stop-color="rgb(76.573181%, 84.661865%, 100%)" offset="0.625"/><stop stop-opacity="1" stop-color="rgb(76.350403%, 84.515381%, 100%)" offset="0.640625"/><stop stop-opacity="1" stop-color="rgb(76.127625%, 84.368896%, 100%)" offset="0.65625"/><stop stop-opacity="1" stop-color="rgb(75.90332%, 84.222412%, 100%)" offset="0.671875"/><stop stop-opacity="1" stop-color="rgb(75.680542%, 84.075928%, 100%)" offset="0.6875"/><stop stop-opacity="1" stop-color="rgb(75.456238%, 83.929443%, 100%)" offset="0.703125"/><stop stop-opacity="1" stop-color="rgb(75.233459%, 83.782959%, 100%)" offset="0.71875"/><stop stop-opacity="1" stop-color="rgb(75.009155%, 83.636475%, 100%)" offset="0.734375"/><stop stop-opacity="1" stop-color="rgb(74.786377%, 83.491516%, 100%)" offset="0.75"/><stop stop-opacity="1" stop-color="rgb(74.562073%, 83.345032%, 100%)" offset="0.765625"/><stop stop-opacity="1" stop-color="rgb(74.339294%, 83.198547%, 100%)" offset="0.78125"/><stop stop-opacity="1" stop-color="rgb(74.11499%, 83.052063%, 100%)" offset="0.796875"/><stop stop-opacity="1" stop-color="rgb(73.892212%, 82.905579%, 100%)" offset="0.8125"/><stop stop-opacity="1" stop-color="rgb(73.669434%, 82.759094%, 100%)" offset="0.828125"/><stop stop-opacity="1" stop-color="rgb(73.445129%, 82.61261%, 100%)" offset="0.84375"/><stop stop-opacity="1" stop-color="rgb(73.222351%, 82.466125%, 100%)" offset="0.859375"/><stop stop-opacity="1" stop-color="rgb(72.998047%, 82.319641%, 100%)" offset="0.861123"/><stop stop-opacity="1" stop-color="rgb(72.886658%, 82.247925%, 100%)" offset="0.875"/><stop stop-opacity="1" stop-color="rgb(72.775269%, 82.174683%, 100%)" offset="0.890625"/><stop stop-opacity="1" stop-color="rgb(72.550964%, 82.028198%, 100%)" offset="0.90625"/><stop stop-opacity="1" stop-color="rgb(72.328186%, 81.881714%, 100%)" offset="0.921875"/><stop stop-opacity="1" stop-color="rgb(72.103882%, 81.735229%, 100%)" offset="0.9375"/><stop stop-opacity="1" stop-color="rgb(71.881104%, 81.588745%, 100%)" offset="0.953125"/><stop stop-opacity="1" stop-color="rgb(71.658325%, 81.442261%, 100%)" offset="0.96875"/><stop stop-opacity="1" stop-color="rgb(71.434021%, 81.295776%, 100%)" offset="0.984375"/><stop stop-opacity="1" stop-color="rgb(71.211243%, 81.149292%, 100%)" offset="1"/></linearGradient><clipPath id="d25e0eaf25"><path d="M 183 200 L 275 200 L 275 262 L 183 262 Z M 183 200 " clip-rule="nonzero"/></clipPath><clipPath id="a1c7b618b6"><path d="M 262.921875 261.347656 L 195.054688 261.347656 C 193.746094 261.347656 192.476562 260.871094 191.492188 260 C 190.507812 259.132812 189.875 257.9375 189.710938 256.632812 L 183.449219 206.683594 C 183.351562 205.925781 183.421875 205.15625 183.644531 204.429688 C 183.871094 203.699219 184.25 203.027344 184.753906 202.453125 C 185.257812 201.882812 185.878906 201.421875 186.578125 201.109375 C 187.273438 200.796875 188.027344 200.632812 188.792969 200.632812 L 269.1875 200.632812 C 269.949219 200.632812 270.707031 200.796875 271.402344 201.109375 C 272.097656 201.421875 272.71875 201.882812 273.226562 202.453125 C 273.730469 203.027344 274.109375 203.699219 274.332031 204.429688 C 274.558594 205.15625 274.625 205.925781 274.53125 206.683594 L 268.265625 256.632812 C 268.105469 257.9375 267.472656 259.132812 266.488281 260 C 265.503906 260.871094 264.234375 261.347656 262.921875 261.347656 Z M 262.921875 261.347656 " clip-rule="nonzero"/></clipPath><linearGradient x1="2695.840297" gradientTransform="matrix(0.0839998, 0, 0, 0.0839281, 0.0544311, 22.734379)" y1="2082.523261" x2="2753.49698" gradientUnits="userSpaceOnUse" y2="2880.305664" id="3477017510"><stop stop-opacity="1" stop-color="rgb(100%, 100%, 100%)" offset="0"/><stop stop-opacity="1" stop-color="rgb(100%, 100%, 100%)" offset="0.03125"/><stop stop-opacity="1" stop-color="rgb(99.972534%, 99.981689%, 100%)" offset="0.046875"/><stop stop-opacity="1" stop-color="rgb(99.775696%, 99.85199%, 100%)" offset="0.0625"/><stop stop-opacity="1" stop-color="rgb(99.436951%, 99.630737%, 100%)" offset="0.078125"/><stop stop-opacity="1" stop-color="rgb(99.09668%, 99.407959%, 100%)" offset="0.09375"/><stop stop-opacity="1" stop-color="rgb(98.757935%, 99.186707%, 100%)" offset="0.0979228"/><stop stop-opacity="1" stop-color="rgb(98.588562%, 99.075317%, 100%)" offset="0.109375"/><stop stop-opacity="1" stop-color="rgb(98.419189%, 98.963928%, 100%)" offset="0.125"/><stop stop-opacity="1" stop-color="rgb(98.080444%, 98.742676%, 100%)" offset="0.140625"/><stop stop-opacity="1" stop-color="rgb(97.740173%, 98.519897%, 100%)" offset="0.15625"/><stop stop-opacity="1" stop-color="rgb(97.401428%, 98.298645%, 100%)" offset="0.171875"/><stop stop-opacity="1" stop-color="rgb(97.062683%, 98.075867%, 100%)" offset="0.1875"/><stop stop-opacity="1" stop-color="rgb(96.723938%, 97.854614%, 100%)" offset="0.203125"/><stop stop-opacity="1" stop-color="rgb(96.383667%, 97.631836%, 100%)" offset="0.21875"/><stop stop-opacity="1" stop-color="rgb(96.044922%, 97.410583%, 100%)" offset="0.234375"/><stop stop-opacity="1" stop-color="rgb(95.706177%, 97.187805%, 100%)" offset="0.25"/><stop stop-opacity="1" stop-color="rgb(95.367432%, 96.966553%, 100%)" offset="0.265625"/><stop stop-opacity="1" stop-color="rgb(95.027161%, 96.743774%, 100%)" offset="0.28125"/><stop stop-opacity="1" stop-color="rgb(94.688416%, 96.522522%, 100%)" offset="0.296875"/><stop stop-opacity="1" stop-color="rgb(94.34967%, 96.299744%, 100%)" offset="0.3125"/><stop stop-opacity="1" stop-color="rgb(94.010925%, 96.076965%, 100%)" offset="0.328125"/><stop stop-opacity="1" stop-color="rgb(93.670654%, 95.855713%, 100%)" offset="0.34375"/><stop stop-opacity="1" stop-color="rgb(93.331909%, 95.632935%, 100%)" offset="0.359375"/><stop stop-opacity="1" stop-color="rgb(92.993164%, 95.411682%, 100%)" offset="0.375"/><stop stop-opacity="1" stop-color="rgb(92.654419%, 95.188904%, 100%)" offset="0.390625"/><stop stop-opacity="1" stop-color="rgb(92.314148%, 94.967651%, 100%)" offset="0.40625"/><stop stop-opacity="1" stop-color="rgb(91.975403%, 94.744873%, 100%)" offset="0.421875"/><stop stop-opacity="1" stop-color="rgb(91.636658%, 94.523621%, 100%)" offset="0.4375"/><stop stop-opacity="1" stop-color="rgb(91.297913%, 94.300842%, 100%)" offset="0.453125"/><stop stop-opacity="1" stop-color="rgb(90.957642%, 94.07959%, 100%)" offset="0.46875"/><stop stop-opacity="1" stop-color="rgb(90.618896%, 93.856812%, 100%)" offset="0.484375"/><stop stop-opacity="1" stop-color="rgb(90.280151%, 93.635559%, 100%)" offset="0.5"/><stop stop-opacity="1" stop-color="rgb(89.941406%, 93.412781%, 100%)" offset="0.515625"/><stop stop-opacity="1" stop-color="rgb(89.601135%, 93.191528%, 100%)" offset="0.53125"/><stop stop-opacity="1" stop-color="rgb(89.26239%, 92.96875%, 100%)" offset="0.546875"/><stop stop-opacity="1" stop-color="rgb(88.923645%, 92.747498%, 100%)" offset="0.5625"/><stop stop-opacity="1" stop-color="rgb(88.5849%, 92.524719%, 100%)" offset="0.578125"/><stop stop-opacity="1" stop-color="rgb(88.244629%, 92.303467%, 100%)" offset="0.59375"/><stop stop-opacity="1" stop-color="rgb(87.905884%, 92.080688%, 100%)" offset="0.609375"/><stop stop-opacity="1" stop-color="rgb(87.567139%, 91.859436%, 100%)" offset="0.625"/><stop stop-opacity="1" stop-color="rgb(87.228394%, 91.636658%, 100%)" offset="0.640625"/><stop stop-opacity="1" stop-color="rgb(86.888123%, 91.413879%, 100%)" offset="0.65625"/><stop stop-opacity="1" stop-color="rgb(86.549377%, 91.192627%, 100%)" offset="0.671875"/><stop stop-opacity="1" stop-color="rgb(86.210632%, 90.969849%, 100%)" offset="0.6875"/><stop stop-opacity="1" stop-color="rgb(85.871887%, 90.748596%, 100%)" offset="0.703125"/><stop stop-opacity="1" stop-color="rgb(85.531616%, 90.525818%, 100%)" offset="0.71875"/><stop stop-opacity="1" stop-color="rgb(85.192871%, 90.304565%, 100%)" offset="0.734375"/><stop stop-opacity="1" stop-color="rgb(84.854126%, 90.081787%, 100%)" offset="0.75"/><stop stop-opacity="1" stop-color="rgb(84.513855%, 89.860535%, 100%)" offset="0.765625"/><stop stop-opacity="1" stop-color="rgb(84.17511%, 89.637756%, 100%)" offset="0.78125"/><stop stop-opacity="1" stop-color="rgb(83.836365%, 89.416504%, 100%)" offset="0.796875"/><stop stop-opacity="1" stop-color="rgb(83.49762%, 89.193726%, 100%)" offset="0.8125"/><stop stop-opacity="1" stop-color="rgb(83.157349%, 88.972473%, 100%)" offset="0.828125"/><stop stop-opacity="1" stop-color="rgb(82.818604%, 88.749695%, 100%)" offset="0.84375"/><stop stop-opacity="1" stop-color="rgb(82.479858%, 88.528442%, 100%)" offset="0.859375"/><stop stop-opacity="1" stop-color="rgb(82.141113%, 88.305664%, 100%)" offset="0.875"/><stop stop-opacity="1" stop-color="rgb(81.800842%, 88.084412%, 100%)" offset="0.890625"/><stop stop-opacity="1" stop-color="rgb(81.462097%, 87.861633%, 100%)" offset="0.902077"/><stop stop-opacity="1" stop-color="rgb(81.292725%, 87.75177%, 100%)" offset="0.90625"/><stop stop-opacity="1" stop-color="rgb(81.123352%, 87.640381%, 100%)" offset="0.921875"/><stop stop-opacity="1" stop-color="rgb(80.784607%, 87.417603%, 100%)" offset="0.9375"/><stop stop-opacity="1" stop-color="rgb(80.444336%, 87.19635%, 100%)" offset="0.953125"/><stop stop-opacity="1" stop-color="rgb(80.105591%, 86.973572%, 100%)" offset="0.96875"/><stop stop-opacity="1" stop-color="rgb(79.766846%, 86.750793%, 100%)" offset="0.984375"/><stop stop-opacity="1" stop-color="rgb(79.428101%, 86.529541%, 100%)" offset="1"/></linearGradient><clipPath id="dafbd704af"><path d="M 0.0976562 22.734375 L 78 22.734375 L 78 114 L 0.0976562 114 Z M 0.0976562 22.734375 " clip-rule="nonzero"/></clipPath><clipPath id="28020c2953"><path d="M 0.0976562 29 L 87 29 L 87 129 L 0.0976562 129 Z M 0.0976562 29 " clip-rule="nonzero"/></clipPath><clipPath id="db22b4c7fe"><path d="M 222 187 L 366 187 L 366 351.953125 L 222 351.953125 Z M 222 187 " clip-rule="nonzero"/></clipPath><clipPath id="963e8df74b"><path d="M 259 162 L 374.917969 162 L 374.917969 298 L 259 298 Z M 259 162 " clip-rule="nonzero"/></clipPath><clipPath id="f886bdcef2"><path d="M 247 179 L 374.917969 179 L 374.917969 318 L 247 318 Z M 247 179 " clip-rule="nonzero"/></clipPath><clipPath id="115cac8b8e"><path d="M 0.0976562 288 L 56 288 L 56 320 L 0.0976562 320 Z M 0.0976562 288 " clip-rule="nonzero"/></clipPath><clipPath id="1a433a1e06"><path d="M 179 213 L 374.917969 213 L 374.917969 351.953125 L 179 351.953125 Z M 179 213 " clip-rule="nonzero"/></clipPath><clipPath id="b2c38b4bdb"><path d="M 94 267 L 171 267 L 171 331 L 94 331 Z M 94 267 " clip-rule="nonzero"/></clipPath><clipPath id="5cde778257"><path d="M 100.394531 267.4375 C 110.640625 270.363281 134.609375 275.585938 166.019531 271.984375 C 166.523438 271.910156 167.039062 271.949219 167.527344 272.097656 C 168.015625 272.242188 168.464844 272.496094 168.847656 272.832031 C 169.226562 273.171875 169.53125 273.589844 169.734375 274.054688 C 169.9375 274.519531 170.039062 275.027344 170.027344 275.535156 L 170.027344 323.96875 C 170.003906 325.039062 169.601562 326.066406 168.898438 326.867188 C 168.191406 327.671875 167.222656 328.199219 166.167969 328.359375 C 154.984375 329.886719 121.777344 333.15625 97.03125 322.480469 C 96.398438 322.203125 95.863281 321.742188 95.492188 321.15625 C 95.121094 320.574219 94.929688 319.890625 94.949219 319.199219 L 94.949219 271.722656 C 94.949219 268.914062 97.777344 266.691406 100.394531 267.4375 Z M 100.394531 267.4375 " clip-rule="nonzero"/></clipPath><linearGradient x1="1550.379635" gradientTransform="matrix(0.0839998, 0, 0, 0.0839281, 0.0544311, 22.734379)" y1="2868.585587" x2="1628.914164" gradientUnits="userSpaceOnUse" y2="3734.468094" id="3df54cc249"><stop stop-opacity="1" stop-color="rgb(100%, 100%, 100%)" offset="0"/><stop stop-opacity="1" stop-color="rgb(99.859619%, 99.908447%, 100%)" offset="0.0625"/><stop stop-opacity="1" stop-color="rgb(99.542236%, 99.699402%, 100%)" offset="0.078125"/><stop stop-opacity="1" stop-color="rgb(99.185181%, 99.465942%, 100%)" offset="0.0928925"/><stop stop-opacity="1" stop-color="rgb(99.006653%, 99.34845%, 100%)" offset="0.09375"/><stop stop-opacity="1" stop-color="rgb(98.828125%, 99.230957%, 100%)" offset="0.109375"/><stop stop-opacity="1" stop-color="rgb(98.469543%, 98.997498%, 100%)" offset="0.125"/><stop stop-opacity="1" stop-color="rgb(98.112488%, 98.764038%, 100%)" offset="0.140625"/><stop stop-opacity="1" stop-color="rgb(97.755432%, 98.530579%, 100%)" offset="0.15625"/><stop stop-opacity="1" stop-color="rgb(97.398376%, 98.295593%, 100%)" offset="0.171875"/><stop stop-opacity="1" stop-color="rgb(97.041321%, 98.062134%, 100%)" offset="0.1875"/><stop stop-opacity="1" stop-color="rgb(96.684265%, 97.828674%, 100%)" offset="0.203125"/><stop stop-opacity="1" stop-color="rgb(96.327209%, 97.595215%, 100%)" offset="0.21875"/><stop stop-opacity="1" stop-color="rgb(95.970154%, 97.360229%, 100%)" offset="0.234375"/><stop stop-opacity="1" stop-color="rgb(95.613098%, 97.12677%, 100%)" offset="0.25"/><stop stop-opacity="1" stop-color="rgb(95.256042%, 96.893311%, 100%)" offset="0.265625"/><stop stop-opacity="1" stop-color="rgb(94.898987%, 96.658325%, 100%)" offset="0.28125"/><stop stop-opacity="1" stop-color="rgb(94.541931%, 96.424866%, 100%)" offset="0.296875"/><stop stop-opacity="1" stop-color="rgb(94.184875%, 96.191406%, 100%)" offset="0.3125"/><stop stop-opacity="1" stop-color="rgb(93.82782%, 95.957947%, 100%)" offset="0.328125"/><stop stop-opacity="1" stop-color="rgb(93.470764%, 95.722961%, 100%)" offset="0.34375"/><stop stop-opacity="1" stop-color="rgb(93.112183%, 95.489502%, 100%)" offset="0.359375"/><stop stop-opacity="1" stop-color="rgb(92.755127%, 95.256042%, 100%)" offset="0.375"/><stop stop-opacity="1" stop-color="rgb(92.398071%, 95.022583%, 100%)" offset="0.390625"/><stop stop-opacity="1" stop-color="rgb(92.041016%, 94.787598%, 100%)" offset="0.40625"/><stop stop-opacity="1" stop-color="rgb(91.68396%, 94.554138%, 100%)" offset="0.421875"/><stop stop-opacity="1" stop-color="rgb(91.326904%, 94.320679%, 100%)" offset="0.4375"/><stop stop-opacity="1" stop-color="rgb(90.969849%, 94.087219%, 100%)" offset="0.453125"/><stop stop-opacity="1" stop-color="rgb(90.612793%, 93.852234%, 100%)" offset="0.46875"/><stop stop-opacity="1" stop-color="rgb(90.255737%, 93.618774%, 100%)" offset="0.484375"/><stop stop-opacity="1" stop-color="rgb(89.898682%, 93.385315%, 100%)" offset="0.5"/><stop stop-opacity="1" stop-color="rgb(89.541626%, 93.151855%, 100%)" offset="0.515625"/><stop stop-opacity="1" stop-color="rgb(89.18457%, 92.91687%, 100%)" offset="0.53125"/><stop stop-opacity="1" stop-color="rgb(88.827515%, 92.683411%, 100%)" offset="0.546875"/><stop stop-opacity="1" stop-color="rgb(88.470459%, 92.449951%, 100%)" offset="0.5625"/><stop stop-opacity="1" stop-color="rgb(88.111877%, 92.216492%, 100%)" offset="0.578125"/><stop stop-opacity="1" stop-color="rgb(87.754822%, 91.981506%, 100%)" offset="0.59375"/><stop stop-opacity="1" stop-color="rgb(87.397766%, 91.748047%, 100%)" offset="0.609375"/><stop stop-opacity="1" stop-color="rgb(87.04071%, 91.514587%, 100%)" offset="0.625"/><stop stop-opacity="1" stop-color="rgb(86.683655%, 91.281128%, 100%)" offset="0.640625"/><stop stop-opacity="1" stop-color="rgb(86.326599%, 91.046143%, 100%)" offset="0.65625"/><stop stop-opacity="1" stop-color="rgb(85.969543%, 90.812683%, 100%)" offset="0.671875"/><stop stop-opacity="1" stop-color="rgb(85.612488%, 90.579224%, 100%)" offset="0.6875"/><stop stop-opacity="1" stop-color="rgb(85.255432%, 90.344238%, 100%)" offset="0.703125"/><stop stop-opacity="1" stop-color="rgb(84.898376%, 90.110779%, 100%)" offset="0.71875"/><stop stop-opacity="1" stop-color="rgb(84.541321%, 89.877319%, 100%)" offset="0.734375"/><stop stop-opacity="1" stop-color="rgb(84.184265%, 89.64386%, 100%)" offset="0.75"/><stop stop-opacity="1" stop-color="rgb(83.827209%, 89.408875%, 100%)" offset="0.765625"/><stop stop-opacity="1" stop-color="rgb(83.470154%, 89.175415%, 100%)" offset="0.78125"/><stop stop-opacity="1" stop-color="rgb(83.113098%, 88.941956%, 100%)" offset="0.796875"/><stop stop-opacity="1" stop-color="rgb(82.754517%, 88.708496%, 100%)" offset="0.8125"/><stop stop-opacity="1" stop-color="rgb(82.397461%, 88.473511%, 100%)" offset="0.828125"/><stop stop-opacity="1" stop-color="rgb(82.040405%, 88.240051%, 100%)" offset="0.84375"/><stop stop-opacity="1" stop-color="rgb(81.68335%, 88.006592%, 100%)" offset="0.859375"/><stop stop-opacity="1" stop-color="rgb(81.326294%, 87.773132%, 100%)" offset="0.875"/><stop stop-opacity="1" stop-color="rgb(80.969238%, 87.538147%, 100%)" offset="0.890625"/><stop stop-opacity="1" stop-color="rgb(80.612183%, 87.304688%, 100%)" offset="0.90625"/><stop stop-opacity="1" stop-color="rgb(80.255127%, 87.071228%, 100%)" offset="0.907108"/><stop stop-opacity="1" stop-color="rgb(80.076599%, 86.955261%, 100%)" offset="0.921875"/><stop stop-opacity="1" stop-color="rgb(79.898071%, 86.837769%, 100%)" offset="0.9375"/><stop stop-opacity="1" stop-color="rgb(79.541016%, 86.602783%, 100%)" offset="0.953125"/><stop stop-opacity="1" stop-color="rgb(79.18396%, 86.369324%, 100%)" offset="0.96875"/><stop stop-opacity="1" stop-color="rgb(78.826904%, 86.135864%, 100%)" offset="0.984375"/><stop stop-opacity="1" stop-color="rgb(78.469849%, 85.902405%, 100%)" offset="1"/></linearGradient><clipPath id="d164bf599d"><path d="M 272 29 L 374.917969 29 L 374.917969 152 L 272 152 Z M 272 29 " clip-rule="nonzero"/></clipPath><clipPath id="59a4f21603"><path d="M 369.09375 30.464844 C 355.707031 40.289062 331.214844 65.054688 277.765625 73.285156 C 273.671875 73.914062 272.140625 76.824219 272.140625 80.039062 L 272.140625 147.753906 C 272.164062 148.691406 272.507812 149.59375 273.121094 150.308594 C 273.730469 151.023438 274.570312 151.507812 275.496094 151.675781 C 288.976562 153.941406 340.902344 140.707031 371.949219 114.066406 C 374.917969 111.519531 374.917969 107.253906 374.917969 106.363281 L 374.917969 33.84375 C 374.917969 30.835938 371.386719 28.785156 369.09375 30.464844 Z M 369.09375 30.464844 " clip-rule="nonzero"/></clipPath><linearGradient x1="4019.741749" gradientTransform="matrix(0.0839998, 0, 0, 0.0839281, 0.0544311, 22.734379)" y1="-77.555519" x2="4338.875798" gradientUnits="userSpaceOnUse" y2="1587.069186" id="f4b6628c93"><stop stop-opacity="1" stop-color="rgb(85.510254%, 90.512085%, 100%)" offset="0"/><stop stop-opacity="1" stop-color="rgb(85.395813%, 90.437317%, 100%)" offset="0.015625"/><stop stop-opacity="1" stop-color="rgb(85.166931%, 90.287781%, 100%)" offset="0.03125"/><stop stop-opacity="1" stop-color="rgb(84.938049%, 90.138245%, 100%)" offset="0.046875"/><stop stop-opacity="1" stop-color="rgb(84.710693%, 89.988708%, 100%)" offset="0.0625"/><stop stop-opacity="1" stop-color="rgb(84.481812%, 89.839172%, 100%)" offset="0.078125"/><stop stop-opacity="1" stop-color="rgb(84.25293%, 89.689636%, 100%)" offset="0.09375"/><stop stop-opacity="1" stop-color="rgb(84.025574%, 89.5401%, 100%)" offset="0.109375"/><stop stop-opacity="1" stop-color="rgb(83.796692%, 89.390564%, 100%)" offset="0.125"/><stop stop-opacity="1" stop-color="rgb(83.569336%, 89.241028%, 100%)" offset="0.135919"/><stop stop-opacity="1" stop-color="rgb(83.454895%, 89.16626%, 100%)" offset="0.140625"/><stop stop-opacity="1" stop-color="rgb(83.340454%, 89.091492%, 100%)" offset="0.15625"/><stop stop-opacity="1" stop-color="rgb(83.111572%, 88.941956%, 100%)" offset="0.171875"/><stop stop-opacity="1" stop-color="rgb(82.884216%, 88.792419%, 100%)" offset="0.1875"/><stop stop-opacity="1" stop-color="rgb(82.655334%, 88.642883%, 100%)" offset="0.203125"/><stop stop-opacity="1" stop-color="rgb(82.426453%, 88.493347%, 100%)" offset="0.21875"/><stop stop-opacity="1" stop-color="rgb(82.199097%, 88.343811%, 100%)" offset="0.234375"/><stop stop-opacity="1" stop-color="rgb(81.970215%, 88.194275%, 100%)" offset="0.25"/><stop stop-opacity="1" stop-color="rgb(81.741333%, 88.044739%, 100%)" offset="0.265625"/><stop stop-opacity="1" stop-color="rgb(81.513977%, 87.895203%, 100%)" offset="0.28125"/><stop stop-opacity="1" stop-color="rgb(81.285095%, 87.745667%, 100%)" offset="0.296875"/><stop stop-opacity="1" stop-color="rgb(81.056213%, 87.59613%, 100%)" offset="0.3125"/><stop stop-opacity="1" stop-color="rgb(80.828857%, 87.446594%, 100%)" offset="0.328125"/><stop stop-opacity="1" stop-color="rgb(80.599976%, 87.297058%, 100%)" offset="0.34375"/><stop stop-opacity="1" stop-color="rgb(80.371094%, 87.147522%, 100%)" offset="0.359375"/><stop stop-opacity="1" stop-color="rgb(80.143738%, 86.997986%, 100%)" offset="0.375"/><stop stop-opacity="1" stop-color="rgb(79.914856%, 86.84845%, 100%)" offset="0.390625"/><stop stop-opacity="1" stop-color="rgb(79.685974%, 86.698914%, 100%)" offset="0.40625"/><stop stop-opacity="1" stop-color="rgb(79.458618%, 86.549377%, 100%)" offset="0.421875"/><stop stop-opacity="1" stop-color="rgb(79.229736%, 86.399841%, 100%)" offset="0.4375"/><stop stop-opacity="1" stop-color="rgb(79.00238%, 86.250305%, 100%)" offset="0.453125"/><stop stop-opacity="1" stop-color="rgb(78.773499%, 86.100769%, 100%)" offset="0.46875"/><stop stop-opacity="1" stop-color="rgb(78.544617%, 85.951233%, 100%)" offset="0.484375"/><stop stop-opacity="1" stop-color="rgb(78.317261%, 85.801697%, 100%)" offset="0.5"/><stop stop-opacity="1" stop-color="rgb(78.088379%, 85.653687%, 100%)" offset="0.515625"/><stop stop-opacity="1" stop-color="rgb(77.859497%, 85.50415%, 100%)" offset="0.53125"/><stop stop-opacity="1" stop-color="rgb(77.632141%, 85.354614%, 100%)" offset="0.546875"/><stop stop-opacity="1" stop-color="rgb(77.403259%, 85.205078%, 100%)" offset="0.5625"/><stop stop-opacity="1" stop-color="rgb(77.174377%, 85.055542%, 100%)" offset="0.578125"/><stop stop-opacity="1" stop-color="rgb(76.947021%, 84.906006%, 100%)" offset="0.59375"/><stop stop-opacity="1" stop-color="rgb(76.71814%, 84.75647%, 100%)" offset="0.609375"/><stop stop-opacity="1" stop-color="rgb(76.489258%, 84.606934%, 100%)" offset="0.625"/><stop stop-opacity="1" stop-color="rgb(76.261902%, 84.457397%, 100%)" offset="0.640625"/><stop stop-opacity="1" stop-color="rgb(76.03302%, 84.307861%, 100%)" offset="0.65625"/><stop stop-opacity="1" stop-color="rgb(75.804138%, 84.158325%, 100%)" offset="0.671875"/><stop stop-opacity="1" stop-color="rgb(75.576782%, 84.008789%, 100%)" offset="0.6875"/><stop stop-opacity="1" stop-color="rgb(75.3479%, 83.859253%, 100%)" offset="0.703125"/><stop stop-opacity="1" stop-color="rgb(75.120544%, 83.709717%, 100%)" offset="0.71875"/><stop stop-opacity="1" stop-color="rgb(74.891663%, 83.560181%, 100%)" offset="0.734375"/><stop stop-opacity="1" stop-color="rgb(74.662781%, 83.410645%, 100%)" offset="0.75"/><stop stop-opacity="1" stop-color="rgb(74.435425%, 83.261108%, 100%)" offset="0.765625"/><stop stop-opacity="1" stop-color="rgb(74.206543%, 83.111572%, 100%)" offset="0.78125"/><stop stop-opacity="1" stop-color="rgb(73.977661%, 82.962036%, 100%)" offset="0.796875"/><stop stop-opacity="1" stop-color="rgb(73.750305%, 82.8125%, 100%)" offset="0.8125"/><stop stop-opacity="1" stop-color="rgb(73.521423%, 82.662964%, 100%)" offset="0.828125"/><stop stop-opacity="1" stop-color="rgb(73.292542%, 82.513428%, 100%)" offset="0.84375"/><stop stop-opacity="1" stop-color="rgb(73.065186%, 82.363892%, 100%)" offset="0.859375"/><stop stop-opacity="1" stop-color="rgb(72.836304%, 82.214355%, 100%)" offset="0.864081"/><stop stop-opacity="1" stop-color="rgb(72.721863%, 82.139587%, 100%)" offset="0.875"/><stop stop-opacity="1" stop-color="rgb(72.607422%, 82.064819%, 100%)" offset="0.890625"/><stop stop-opacity="1" stop-color="rgb(72.380066%, 81.915283%, 100%)" offset="0.90625"/><stop stop-opacity="1" stop-color="rgb(72.151184%, 81.765747%, 100%)" offset="0.921875"/><stop stop-opacity="1" stop-color="rgb(71.922302%, 81.616211%, 100%)" offset="0.9375"/><stop stop-opacity="1" stop-color="rgb(71.694946%, 81.466675%, 100%)" offset="0.953125"/><stop stop-opacity="1" stop-color="rgb(71.466064%, 81.317139%, 100%)" offset="0.96875"/><stop stop-opacity="1" stop-color="rgb(71.237183%, 81.167603%, 100%)" offset="0.984375"/><stop stop-opacity="1" stop-color="rgb(71.009827%, 81.018066%, 100%)" offset="1"/></linearGradient><clipPath id="303ce0e028"><path d="M 279 22.734375 L 374.917969 22.734375 L 374.917969 127 L 279 127 Z M 279 22.734375 " clip-rule="nonzero"/></clipPath><clipPath id="2c1f1d689e"><path d="M 279 22.734375 L 374.917969 22.734375 L 374.917969 142 L 279 142 Z M 279 22.734375 " clip-rule="nonzero"/></clipPath><clipPath id="dbbfb60a3c"><path d="M 279 29 L 374.917969 29 L 374.917969 158 L 279 158 Z M 279 29 " clip-rule="nonzero"/></clipPath><clipPath id="3b550a8dc2"><path d="M 279 47 L 374.917969 47 L 374.917969 175 L 279 175 Z M 279 47 " clip-rule="nonzero"/></clipPath></defs><g clip-path="url(#881ca60a1a)"><path fill="#1c85e8" d="M 75.179688 22.734375 L 304.6875 22.734375 C 308.160156 22.734375 311.488281 24.113281 313.941406 26.5625 C 316.394531 29.015625 317.773438 32.339844 317.773438 35.808594 L 317.773438 50.242188 L 62.09375 50.242188 L 62.09375 35.808594 C 62.09375 32.339844 63.472656 29.015625 65.925781 26.5625 C 68.378906 24.113281 71.707031 22.734375 75.179688 22.734375 Z M 75.179688 22.734375 " fill-opacity="1" fill-rule="nonzero"/></g><g clip-path="url(#834bd23222)"><g clip-path="url(#30d1facb13)"><path fill="url(#1ad8e4d7ff)" d="M 62.09375 50.242188 L 62.09375 305.707031 L 317.773438 305.707031 L 317.773438 50.242188 Z M 62.09375 50.242188 " fill-rule="nonzero"/></g></g><path fill="#ffccb3" d="M 229.148438 214.503906 L 159.019531 214.503906 L 159.019531 248.53125 L 229.148438 248.53125 Z M 229.148438 214.503906 " fill-opacity="1" fill-rule="nonzero"/><path fill="#1f2d49" d="M 158.605469 235.484375 C 150.382812 243.570312 147.144531 283.390625 147.578125 305.707031 L 245.484375 305.707031 C 245.484375 305.707031 245.308594 257.039062 237.882812 240.636719 C 231.058594 225.554688 219.714844 247.804688 158.605469 235.484375 Z M 158.605469 235.484375 " fill-opacity="1" fill-rule="nonzero"/><path fill="#1c85e8" d="M 174.789062 140.628906 C 174.789062 140.628906 187.386719 154.753906 183.195312 159.285156 C 174.898438 168.597656 152.832031 186.097656 145.601562 191.890625 C 145.289062 192.132812 144.933594 192.304688 144.550781 192.40625 C 144.171875 192.507812 143.777344 192.53125 143.386719 192.476562 C 142.996094 192.425781 142.621094 192.296875 142.28125 192.097656 C 141.945312 191.898438 141.648438 191.632812 141.410156 191.320312 L 124.3125 168.859375 C 123.644531 167.996094 123.332031 166.90625 123.441406 165.820312 C 123.550781 164.730469 124.070312 163.726562 124.898438 163.011719 L 158.019531 134.476562 Z M 174.789062 140.628906 " fill-opacity="1" fill-rule="nonzero"/><path fill="#0e66af" d="M 154.902344 158.585938 C 154.902344 158.585938 139.207031 167.90625 137.792969 186.636719 L 140.917969 190.652344 C 140.917969 190.652344 142.878906 194.070312 145.601562 191.890625 C 148.320312 189.714844 160.90625 179.644531 160.90625 179.644531 Z M 154.902344 158.585938 " fill-opacity="1" fill-rule="nonzero"/><path fill="#1c85e8" d="M 169.582031 165.6875 C 179.371094 165.6875 187.308594 157.757812 187.308594 147.972656 C 187.308594 138.1875 179.371094 130.257812 169.582031 130.257812 C 159.789062 130.257812 151.851562 138.1875 151.851562 147.972656 C 151.851562 157.757812 159.789062 165.6875 169.582031 165.6875 Z M 169.582031 165.6875 " fill-opacity="1" fill-rule="nonzero"/><path fill="#ffccb3" d="M 123.414062 203.5 L 107.917969 183.003906 L 122.585938 171.625 L 124.886719 169.777344 L 140.957031 190.777344 L 138.160156 192.789062 Z M 123.414062 203.5 " fill-opacity="1" fill-rule="nonzero"/><path fill="#ff967c" d="M 138.160156 192.789062 C 134.007812 187.234375 126.203125 176.386719 122.585938 171.625 L 124.886719 169.777344 L 140.917969 190.652344 Z M 138.160156 192.789062 " fill-opacity="1" fill-rule="nonzero"/><path fill="#ffccb3" d="M 115.429688 206.34375 C 122.539062 206.34375 128.300781 200.585938 128.300781 193.484375 C 128.300781 186.382812 122.539062 180.625 115.429688 180.625 C 108.324219 180.625 102.558594 186.382812 102.558594 193.484375 C 102.558594 200.585938 108.324219 206.34375 115.429688 206.34375 Z M 115.429688 206.34375 " fill-opacity="1" fill-rule="nonzero"/><path fill="#ffccb3" d="M 126.328125 186.566406 C 126.328125 186.566406 84.8125 125.648438 82.890625 120.472656 C 81.023438 115.421875 71.21875 127.578125 71.21875 127.578125 L 103.351562 197.625 Z M 126.328125 186.566406 " fill-opacity="1" fill-rule="nonzero"/><path fill="#ffccb3" d="M 183.484375 101.613281 L 178.496094 136.378906 C 178.496094 136.378906 177.183594 140.996094 183 141.695312 C 188.8125 142.390625 201.214844 140.832031 205.640625 136.117188 C 210.070312 131.402344 208.519531 129.066406 208.519531 129.066406 L 199.128906 91.328125 Z M 183.484375 101.613281 " fill-opacity="1" fill-rule="nonzero"/><path fill="#ff967c" d="M 182.792969 106.113281 L 195 101.804688 L 179.875 124.203125 Z M 182.792969 106.113281 " fill-opacity="1" fill-rule="nonzero"/><path fill="#ffccb3" d="M 169.671875 58.667969 C 169.671875 58.667969 159.199219 83.257812 164.65625 100.109375 C 168.21875 111.101562 175.96875 113.078125 193.726562 104.839844 C 210.003906 97.289062 214.234375 91.574219 214.234375 91.574219 L 216.632812 64.164062 C 216.632812 64.164062 180.308594 36.75 169.671875 58.667969 Z M 169.671875 58.667969 " fill-opacity="1" fill-rule="nonzero"/><path fill="#1c85e8" d="M 178.40625 126.382812 C 178.40625 126.382812 164.988281 130.109375 162.265625 132.285156 C 159.542969 134.460938 155.230469 145.59375 155.230469 158.335938 C 155.230469 176.40625 157.71875 186.105469 157.71875 197.324219 C 157.71875 208.546875 151.804688 251.339844 151.804688 251.339844 L 238.84375 251.339844 C 236.617188 208.476562 238.84375 131.90625 238.84375 131.90625 L 205.671875 124.269531 C 198.191406 125.558594 178.40625 126.382812 178.40625 126.382812 Z M 178.40625 126.382812 " fill-opacity="1" fill-rule="nonzero"/><path fill="#0e66af" d="M 222.765625 147.972656 C 222.765625 147.972656 211.199219 155.613281 214.605469 163.324219 C 218.4375 171.992188 214.605469 181.539062 214.605469 194.851562 C 213.285156 198.847656 212.523438 202.652344 212.523438 205.882812 C 212.523438 209.117188 210.742188 206.027344 210.742188 215.414062 C 210.742188 222.097656 231.761719 227.894531 231.21875 222.492188 C 227.5625 186.367188 242.753906 163.488281 222.765625 147.972656 Z M 222.765625 147.972656 " fill-opacity="1" fill-rule="nonzero"/><path fill="#ffccb3" d="M 262.828125 217.089844 L 237.207031 219.1875 L 232.832031 200.632812 L 227.5625 186.367188 L 254.527344 183.140625 L 257.898438 199.109375 Z M 262.828125 217.089844 " fill-opacity="1" fill-rule="nonzero"/><path fill="#ff967c" d="M 255.4375 187.453125 L 256.382812 191.929688 L 229.828125 192.5 L 228.082031 187.773438 Z M 255.4375 187.453125 " fill-opacity="1" fill-rule="nonzero"/><path fill="#1c85e8" d="M 234.4375 166.78125 C 244.226562 166.78125 252.164062 158.851562 252.164062 149.066406 C 252.164062 139.28125 244.226562 131.351562 234.4375 131.351562 C 224.644531 131.351562 216.707031 139.28125 216.707031 149.066406 C 216.707031 158.851562 224.644531 166.78125 234.4375 166.78125 Z M 234.4375 166.78125 " fill-opacity="1" fill-rule="nonzero"/><path fill="#1c85e8" d="M 231.015625 140.738281 C 231.015625 140.738281 249.699219 137.675781 251.289062 143.636719 C 254.714844 155.621094 258.929688 174.867188 259.953125 184.070312 C 259.988281 184.464844 259.945312 184.859375 259.828125 185.230469 C 259.707031 185.605469 259.515625 185.953125 259.261719 186.253906 C 259.011719 186.554688 258.699219 186.800781 258.351562 186.980469 C 258 187.160156 257.617188 187.269531 257.226562 187.300781 L 229.085938 189.699219 C 227.996094 189.800781 226.910156 189.484375 226.050781 188.808594 C 225.1875 188.132812 224.621094 187.15625 224.457031 186.074219 L 216.835938 151.597656 Z M 231.015625 140.738281 " fill-opacity="1" fill-rule="nonzero"/><path fill="#080b09" d="M 176.203125 56.332031 C 176.203125 56.332031 176.867188 68.273438 186.992188 74.0625 C 186.992188 74.0625 189.953125 83.222656 201.007812 85.378906 C 201.007812 85.378906 200.351562 76.957031 205.621094 77.046875 C 214.566406 77.199219 210.164062 90.753906 204.117188 92.980469 C 200.007812 94.492188 197.53125 99.855469 203.632812 112.082031 C 217.640625 107.089844 227.492188 86.929688 223.632812 64.5625 C 220.539062 46.648438 198.3125 40.796875 193.746094 41.382812 C 193.746094 41.382812 174.78125 34.835938 164.796875 52.789062 C 156.261719 68.136719 164.234375 77.292969 164.234375 77.292969 L 168.78125 63.636719 C 168.78125 63.636719 170.683594 64.96875 176.203125 56.332031 Z M 176.203125 56.332031 " fill-opacity="1" fill-rule="nonzero"/><g clip-path="url(#d25e0eaf25)"><g clip-path="url(#a1c7b618b6)"><path fill="url(#3477017510)" d="M 183.351562 200.632812 L 183.351562 261.347656 L 274.625 261.347656 L 274.625 200.632812 Z M 183.351562 200.632812 " fill-rule="nonzero"/></g></g><path fill="#ffffff" d="M 229.148438 234.816406 C 231.78125 234.816406 233.914062 232.6875 233.914062 230.058594 C 233.914062 227.429688 231.78125 225.300781 229.148438 225.300781 C 226.519531 225.300781 224.386719 227.429688 224.386719 230.058594 C 224.386719 232.6875 226.519531 234.816406 229.148438 234.816406 Z M 229.148438 234.816406 " fill-opacity="1" fill-rule="nonzero"/><path fill="#ffccb3" d="M 72.984375 131.582031 L 68.894531 123.742188 C 68.894531 123.742188 54.433594 115.476562 52.757812 112.492188 C 51.082031 109.5 50.421875 100.96875 53.390625 98.785156 C 53.390625 98.785156 41.851562 90.128906 43.816406 88.371094 C 45.773438 86.492188 68.441406 103.316406 68.441406 103.316406 C 68.441406 103.316406 65.679688 90.921875 69.875 90.339844 C 71.011719 95.144531 72.957031 99.71875 75.628906 103.871094 C 80.046875 110.691406 80.589844 116.800781 80.589844 116.800781 L 85.792969 126.78125 Z M 72.984375 131.582031 " fill-opacity="1" fill-rule="nonzero"/><path stroke-linecap="round" transform="matrix(0.0839998, 0, 0, 0.0839281, 0.0544311, 22.734374)" fill="none" stroke-linejoin="round" d="M 644.210315 908.748289 L 727.357834 961.155488 " stroke="#ff967c" stroke-width="13.016" stroke-opacity="1" stroke-miterlimit="4"/><path stroke-linecap="round" transform="matrix(0.0839998, 0, 0, 0.0839281, 0.0544311, 22.734374)" fill="none" stroke-linejoin="round" d="M 631.79399 968.741965 L 702.385676 1012.585288 " stroke="#ff967c" stroke-width="13.016" stroke-opacity="1" stroke-miterlimit="4"/><path stroke-linecap="round" transform="matrix(0.0839998, 0, 0, 0.0839281, 0.0544311, 22.734374)" fill="none" stroke-linejoin="round" d="M 645.512401 1033.576093 L 692.620028 1063.316945 " stroke="#ff967c" stroke-width="13.016" stroke-opacity="1" stroke-miterlimit="4"/><path fill="#ffffff" d="M 81.496094 39.816406 C 83.335938 39.816406 84.828125 38.328125 84.828125 36.488281 C 84.828125 34.652344 83.335938 33.160156 81.496094 33.160156 C 79.660156 33.160156 78.167969 34.652344 78.167969 36.488281 C 78.167969 38.328125 79.660156 39.816406 81.496094 39.816406 Z M 81.496094 39.816406 " fill-opacity="1" fill-rule="nonzero"/><path fill="#ffffff" d="M 94.949219 39.816406 C 96.785156 39.816406 98.277344 38.328125 98.277344 36.488281 C 98.277344 34.652344 96.785156 33.160156 94.949219 33.160156 C 93.109375 33.160156 91.617188 34.652344 91.617188 36.488281 C 91.617188 38.328125 93.109375 39.816406 94.949219 39.816406 Z M 94.949219 39.816406 " fill-opacity="1" fill-rule="nonzero"/><path fill="#ffffff" d="M 107.585938 39.816406 C 109.421875 39.816406 110.914062 38.328125 110.914062 36.488281 C 110.914062 34.652344 109.421875 33.160156 107.585938 33.160156 C 105.746094 33.160156 104.253906 34.652344 104.253906 36.488281 C 104.253906 38.328125 105.746094 39.816406 107.585938 39.816406 Z M 107.585938 39.816406 " fill-opacity="1" fill-rule="nonzero"/><path fill="#febb94" d="M 7.558594 36.082031 C 20.945312 47.488281 56.25 73.5 101.09375 74.742188 C 102.011719 74.769531 102.878906 75.15625 103.519531 75.8125 C 104.15625 76.472656 104.511719 77.351562 104.511719 78.269531 L 104.511719 149.257812 C 104.511719 150.164062 104.164062 151.035156 103.539062 151.691406 C 102.914062 152.347656 102.0625 152.738281 101.15625 152.785156 C 87.675781 153.453125 36.550781 153.375 2.671875 117.136719 C 2.070312 116.488281 1.734375 115.632812 1.738281 114.742188 L 1.738281 38.769531 C 1.738281 38.097656 1.929688 37.4375 2.292969 36.867188 C 2.65625 36.300781 3.175781 35.847656 3.785156 35.566406 C 4.398438 35.28125 5.078125 35.179688 5.746094 35.273438 C 6.414062 35.363281 7.042969 35.644531 7.558594 36.082031 Z M 7.558594 36.082031 " fill-opacity="0.7" fill-rule="nonzero"/><g clip-path="url(#dafbd704af)"><path stroke-linecap="round" transform="matrix(0.0839998, 0, 0, 0.0839281, 0.0544311, 22.734374)" fill="none" stroke-linejoin="miter" d="M 149.789495 408.273504 C 149.789495 408.273504 275.533842 530.494911 447.455754 606.406226 " stroke="#ffffff" stroke-width="33.686001" stroke-opacity="1" stroke-miterlimit="10"/></g><g clip-path="url(#28020c2953)"><path stroke-linecap="round" transform="matrix(0.0839998, 0, 0, 0.0839281, 0.0544311, 22.734374)" fill="none" stroke-linejoin="miter" d="M 149.789495 556.419253 C 149.789495 556.419253 324.827114 719.691414 552.506227 780.336689 " stroke="#ffffff" stroke-width="33.686001" stroke-opacity="0.4" stroke-miterlimit="10"/></g><path fill="#ffffff" d="M 10.445312 114.902344 L 10.445312 85.253906 L 20.851562 92.691406 L 20.851562 123.058594 Z M 10.445312 114.902344 " fill-opacity="1" fill-rule="nonzero"/><path fill="#ffffff" d="M 28.007812 126.886719 L 28.007812 105.757812 L 38.410156 111.976562 L 38.410156 132.863281 Z M 28.007812 126.886719 " fill-opacity="1" fill-rule="nonzero"/><path fill="#ffffff" d="M 72.5 143.425781 L 72.5 122.296875 L 62.09375 120.875 L 62.09375 141.761719 Z M 72.5 143.425781 " fill-opacity="1" fill-rule="nonzero"/><path fill="#ffffff" d="M 89.589844 144.328125 L 89.589844 107.339844 L 79.183594 107.339844 L 79.183594 144.089844 Z M 89.589844 144.328125 " fill-opacity="1" fill-rule="nonzero"/><path fill="#ffffff" d="M 45.050781 136.144531 L 45.050781 126.484375 L 55.457031 129.40625 L 55.457031 139.90625 Z M 45.050781 136.144531 " fill-opacity="1" fill-rule="nonzero"/><path fill="#96bafd" d="M 33.617188 183.179688 C 47.003906 193.003906 82.3125 218.636719 127.152344 214.5625 C 127.589844 214.511719 128.03125 214.554688 128.449219 214.691406 C 128.867188 214.824219 129.25 215.046875 129.574219 215.34375 C 129.898438 215.640625 130.15625 216.003906 130.328125 216.40625 C 130.5 216.8125 130.582031 217.246094 130.570312 217.683594 L 130.570312 288.675781 C 130.550781 289.613281 130.203125 290.519531 129.589844 291.230469 C 128.980469 291.945312 128.140625 292.429688 127.214844 292.597656 C 113.734375 294.867188 57.660156 293.746094 28.730469 264.816406 C 28.433594 264.515625 28.195312 264.160156 28.035156 263.769531 C 27.875 263.378906 27.792969 262.957031 27.796875 262.535156 L 27.796875 186.558594 C 27.796875 183.550781 31.324219 181.5 33.617188 183.179688 Z M 33.617188 183.179688 " fill-opacity="0.7" fill-rule="nonzero"/><path fill="#ffccb3" d="M 249.105469 259.308594 C 249.105469 259.308594 252.691406 259.605469 252.152344 261.414062 C 251.609375 263.222656 248.40625 262.390625 245.484375 264.199219 C 242.558594 266.007812 231 267.296875 225.226562 266.335938 C 219.449219 265.375 217.847656 259.308594 217.847656 259.308594 C 217.847656 259.308594 216.882812 253.558594 227.082031 252.964844 C 237.28125 252.375 242.027344 255.644531 243.800781 259.191406 Z M 249.105469 259.308594 " fill-opacity="1" fill-rule="nonzero"/><path stroke-linecap="round" transform="matrix(0.0839998, 0, 0, 0.0839281, 0.0544311, 22.734374)" fill="none" stroke-linejoin="miter" d="M 2644.401087 2753.844718 L 2670.628828 2824.403611 " stroke="#e56441" stroke-width="10.147" stroke-opacity="1" stroke-miterlimit="4"/><path stroke-linecap="round" transform="matrix(0.0839998, 0, 0, 0.0839281, 0.0544311, 22.734374)" fill="none" stroke-linejoin="miter" d="M 2712.295594 2742.348645 L 2738.523335 2812.907538 " stroke="#e56441" stroke-width="10.147" stroke-opacity="1" stroke-miterlimit="4"/><path stroke-linecap="round" transform="matrix(0.0839998, 0, 0, 0.0839281, 0.0544311, 22.734374)" fill="none" stroke-linejoin="miter" d="M 2784.049857 2748.352667 L 2810.277598 2818.865017 " stroke="#e56441" stroke-width="10.147" stroke-opacity="1" stroke-miterlimit="4"/><g clip-path="url(#db22b4c7fe)"><path fill="#1c85e8" d="M 357.648438 188.957031 C 338.972656 204.871094 289.726562 241.152344 227.175781 242.886719 C 225.894531 242.925781 224.683594 243.460938 223.792969 244.378906 C 222.902344 245.296875 222.40625 246.523438 222.40625 247.804688 L 222.40625 346.828125 C 222.40625 348.09375 222.890625 349.308594 223.761719 350.222656 C 224.632812 351.136719 225.824219 351.683594 227.085938 351.746094 C 245.894531 352.679688 317.207031 352.570312 364.460938 302.023438 C 365.304688 301.117188 365.773438 299.921875 365.769531 298.683594 L 365.769531 192.707031 C 365.769531 191.765625 365.496094 190.847656 364.992188 190.054688 C 364.484375 189.261719 363.761719 188.632812 362.910156 188.238281 C 362.054688 187.84375 361.105469 187.699219 360.175781 187.828125 C 359.242188 187.957031 358.367188 188.347656 357.648438 188.957031 Z M 357.648438 188.957031 " fill-opacity="0.7" fill-rule="nonzero"/></g><g clip-path="url(#963e8df74b)"><path stroke-linecap="round" transform="matrix(0.0839998, 0, 0, 0.0839281, 0.0544311, 22.734374)" fill="none" stroke-linejoin="miter" d="M 4172.77154 2328.210764 C 4172.77154 2328.210764 3997.315393 2498.697059 3757.545477 2604.581941 " stroke="#ffffff" stroke-width="46.988998" stroke-opacity="1" stroke-miterlimit="10"/></g><g clip-path="url(#f886bdcef2)"><path stroke-linecap="round" transform="matrix(0.0839998, 0, 0, 0.0839281, 0.0544311, 22.734374)" fill="none" stroke-linejoin="miter" d="M 4172.77154 2534.907362 C 4172.77154 2534.907362 3928.583831 2762.641308 3610.967747 2847.209585 " stroke="#ffffff" stroke-width="46.988998" stroke-opacity="0.4" stroke-miterlimit="10"/></g><path fill="#ffffff" d="M 340.988281 157.628906 L 283.980469 157.628906 C 282.863281 157.628906 281.757812 157.847656 280.722656 158.277344 C 279.691406 158.703125 278.75 159.332031 277.960938 160.121094 C 277.167969 160.910156 276.542969 161.847656 276.113281 162.882812 C 275.683594 163.914062 275.464844 165.019531 275.464844 166.136719 L 275.464844 183.757812 C 275.464844 184.878906 275.683594 185.984375 276.113281 187.015625 C 276.542969 188.050781 277.167969 188.988281 277.960938 189.777344 C 278.75 190.566406 279.691406 191.195312 280.722656 191.621094 C 281.757812 192.050781 282.863281 192.269531 283.980469 192.269531 L 304.21875 192.269531 L 310.191406 198.238281 C 310.75 198.792969 311.507812 199.109375 312.296875 199.109375 C 313.089844 199.109375 313.847656 198.792969 314.40625 198.238281 L 320.378906 192.269531 L 340.988281 192.269531 C 343.246094 192.269531 345.414062 191.371094 347.011719 189.777344 C 348.609375 188.179688 349.503906 186.015625 349.503906 183.757812 L 349.503906 166.136719 C 349.503906 163.882812 348.609375 161.71875 347.011719 160.121094 C 345.414062 158.527344 343.246094 157.628906 340.988281 157.628906 Z M 340.988281 157.628906 " fill-opacity="1" fill-rule="nonzero"/><path fill="#f4608a" d="M 299.648438 169.359375 C 298.886719 168.65625 297.890625 168.265625 296.855469 168.265625 C 295.820312 168.265625 294.820312 168.65625 294.058594 169.359375 L 293.007812 170.332031 L 291.953125 169.359375 C 291.195312 168.65625 290.195312 168.265625 289.160156 168.265625 C 288.125 168.265625 287.125 168.65625 286.363281 169.359375 C 285.964844 169.722656 285.644531 170.167969 285.421875 170.660156 C 285.203125 171.15625 285.089844 171.691406 285.089844 172.234375 C 285.089844 172.773438 285.203125 173.308594 285.421875 173.804688 C 285.644531 174.300781 285.964844 174.742188 286.363281 175.105469 L 293.007812 181.257812 L 299.648438 175.1875 C 300.066406 174.824219 300.40625 174.378906 300.632812 173.875 C 300.867188 173.371094 300.984375 172.828125 300.984375 172.273438 C 300.984375 171.71875 300.867188 171.175781 300.632812 170.671875 C 300.40625 170.167969 300.066406 169.722656 299.648438 169.359375 Z M 299.648438 169.359375 " fill-opacity="1" fill-rule="nonzero"/><path fill="#1c85e8" d="M 307.0625 172.953125 C 307.121094 172.207031 307.410156 171.625 307.929688 171.203125 C 308.445312 170.78125 309.121094 170.570312 309.945312 170.570312 C 310.5 170.570312 310.972656 170.671875 311.371094 170.875 C 311.777344 171.070312 312.082031 171.335938 312.285156 171.675781 C 312.492188 172.019531 312.597656 172.402344 312.597656 172.832031 C 312.597656 173.335938 312.453125 173.769531 312.160156 174.132812 C 311.875 174.496094 311.503906 174.730469 311.042969 174.839844 L 311.042969 174.898438 C 311.566406 175.027344 311.988281 175.28125 312.296875 175.664062 C 312.601562 176.046875 312.757812 176.542969 312.757812 177.160156 C 312.757812 177.621094 312.652344 178.039062 312.441406 178.410156 C 312.230469 178.773438 311.914062 179.0625 311.492188 179.273438 C 311.070312 179.484375 310.5625 179.589844 309.972656 179.589844 C 309.113281 179.589844 308.410156 179.367188 307.855469 178.921875 C 307.304688 178.46875 306.996094 177.828125 306.929688 177 L 308 177 C 308.058594 177.488281 308.253906 177.882812 308.597656 178.191406 C 308.9375 178.5 309.394531 178.652344 309.960938 178.652344 C 310.527344 178.652344 310.957031 178.507812 311.246094 178.214844 C 311.550781 177.917969 311.703125 177.53125 311.703125 177.0625 C 311.703125 176.453125 311.496094 176.015625 311.09375 175.75 C 310.683594 175.480469 310.070312 175.347656 309.253906 175.347656 L 308.976562 175.347656 L 308.976562 174.425781 L 309.269531 174.425781 C 310.011719 174.417969 310.578125 174.296875 310.957031 174.058594 C 311.339844 173.816406 311.53125 173.445312 311.53125 172.941406 C 311.53125 172.511719 311.390625 172.167969 311.101562 171.910156 C 310.828125 171.648438 310.429688 171.519531 309.910156 171.519531 C 309.410156 171.519531 309.003906 171.648438 308.691406 171.910156 C 308.386719 172.167969 308.203125 172.515625 308.148438 172.953125 Z M 315.578125 177.996094 L 314.21875 181.265625 L 313.476562 181.265625 L 314.363281 177.996094 Z M 322.269531 171.703125 L 318.003906 171.703125 L 318.003906 174.472656 C 318.1875 174.214844 318.460938 174.003906 318.828125 173.839844 C 319.191406 173.671875 319.585938 173.585938 320.007812 173.585938 C 320.683594 173.585938 321.230469 173.726562 321.648438 174.011719 C 322.070312 174.285156 322.371094 174.648438 322.550781 175.09375 C 322.738281 175.53125 322.828125 175.996094 322.828125 176.492188 C 322.828125 177.074219 322.722656 177.597656 322.5 178.058594 C 322.285156 178.519531 321.945312 178.882812 321.492188 179.152344 C 321.046875 179.417969 320.492188 179.554688 319.824219 179.554688 C 318.976562 179.554688 318.285156 179.335938 317.757812 178.898438 C 317.234375 178.460938 316.910156 177.875 316.796875 177.148438 L 317.878906 177.148438 C 317.984375 177.609375 318.207031 177.96875 318.550781 178.230469 C 318.890625 178.488281 319.320312 178.617188 319.835938 178.617188 C 320.480469 178.617188 320.960938 178.425781 321.289062 178.046875 C 321.609375 177.65625 321.769531 177.148438 321.769531 176.515625 C 321.769531 175.882812 321.609375 175.398438 321.289062 175.054688 C 320.960938 174.707031 320.484375 174.535156 319.851562 174.535156 C 319.421875 174.535156 319.042969 174.640625 318.71875 174.851562 C 318.402344 175.050781 318.171875 175.332031 318.023438 175.6875 L 316.980469 175.6875 L 316.980469 170.730469 L 322.269531 170.730469 Z M 324.167969 178.640625 C 325.195312 177.816406 326.003906 177.136719 326.585938 176.613281 C 327.171875 176.078125 327.664062 175.523438 328.058594 174.945312 C 328.464844 174.363281 328.667969 173.792969 328.667969 173.234375 C 328.667969 172.707031 328.539062 172.292969 328.28125 171.992188 C 328.027344 171.6875 327.617188 171.53125 327.050781 171.53125 C 326.5 171.53125 326.070312 171.707031 325.761719 172.054688 C 325.460938 172.394531 325.300781 172.851562 325.273438 173.429688 L 324.203125 173.429688 C 324.238281 172.519531 324.511719 171.820312 325.03125 171.324219 C 325.550781 170.832031 326.21875 170.582031 327.039062 170.582031 C 327.871094 170.582031 328.535156 170.816406 329.019531 171.277344 C 329.515625 171.738281 329.761719 172.375 329.761719 173.183594 C 329.761719 173.855469 329.558594 174.515625 329.15625 175.152344 C 328.757812 175.785156 328.304688 176.34375 327.792969 176.832031 C 327.285156 177.308594 326.628906 177.867188 325.832031 178.507812 L 330.015625 178.507812 L 330.015625 179.429688 L 324.167969 179.429688 Z M 336.707031 171.605469 L 333.328125 179.527344 L 332.207031 179.527344 L 335.640625 171.714844 L 330.945312 171.714844 L 330.945312 170.765625 L 336.707031 170.765625 Z M 336.707031 171.605469 " fill-opacity="1" fill-rule="nonzero"/><g clip-path="url(#115cac8b8e)"><path fill="#1c85e8" d="M 6.515625 319.820312 L 49.496094 319.820312 C 50.339844 319.820312 51.175781 319.65625 51.953125 319.332031 C 52.734375 319.011719 53.441406 318.539062 54.039062 317.941406 C 54.632812 317.347656 55.105469 316.640625 55.429688 315.859375 C 55.753906 315.082031 55.917969 314.246094 55.917969 313.40625 L 55.917969 300.121094 C 55.917969 299.277344 55.753906 298.441406 55.429688 297.664062 C 55.105469 296.886719 54.632812 296.179688 54.039062 295.582031 C 53.441406 294.988281 52.734375 294.515625 51.953125 294.191406 C 51.175781 293.871094 50.339844 293.703125 49.496094 293.703125 L 34.238281 293.703125 L 29.738281 289.207031 C 29.316406 288.785156 28.742188 288.546875 28.148438 288.546875 C 27.550781 288.546875 26.980469 288.785156 26.558594 289.207031 L 22.054688 293.703125 L 6.515625 293.703125 C 4.8125 293.703125 3.179688 294.378906 1.976562 295.582031 C 0.773438 296.785156 0.0976562 298.417969 0.0976562 300.121094 L 0.0976562 313.40625 C 0.0976562 315.105469 0.773438 316.738281 1.976562 317.941406 C 3.179688 319.144531 4.8125 319.820312 6.515625 319.820312 Z M 6.515625 319.820312 " fill-opacity="0.7" fill-rule="nonzero"/></g><path fill="#ffffff" d="M 26.765625 310.027344 C 27.542969 309.40625 28.148438 308.894531 28.589844 308.496094 C 29.03125 308.09375 29.398438 307.675781 29.699219 307.242188 C 30.003906 306.800781 30.15625 306.371094 30.15625 305.949219 C 30.15625 305.554688 30.058594 305.242188 29.863281 305.015625 C 29.675781 304.785156 29.367188 304.667969 28.9375 304.667969 C 28.523438 304.667969 28.199219 304.800781 27.964844 305.0625 C 27.738281 305.320312 27.617188 305.664062 27.597656 306.097656 L 26.792969 306.097656 C 26.816406 305.414062 27.023438 304.882812 27.414062 304.511719 C 27.808594 304.140625 28.3125 303.953125 28.929688 303.953125 C 29.558594 303.953125 30.058594 304.125 30.425781 304.476562 C 30.796875 304.824219 30.984375 305.304688 30.984375 305.914062 C 30.984375 306.421875 30.832031 306.914062 30.523438 307.398438 C 30.226562 307.875 29.882812 308.296875 29.496094 308.664062 C 29.113281 309.023438 28.621094 309.445312 28.019531 309.925781 L 31.175781 309.925781 L 31.175781 310.625 L 26.765625 310.625 Z M 31.9375 309.222656 L 31.9375 308.589844 L 35.15625 304.136719 L 36.15625 304.136719 L 36.15625 308.496094 L 37.074219 308.496094 L 37.074219 309.222656 L 36.15625 309.222656 L 36.15625 310.695312 L 35.332031 310.695312 L 35.332031 309.222656 Z M 35.367188 305.007812 L 32.902344 308.496094 L 35.367188 308.496094 Z M 37.890625 305.738281 C 37.933594 305.175781 38.148438 304.738281 38.539062 304.421875 C 38.933594 304.101562 39.441406 303.945312 40.0625 303.945312 C 40.480469 303.945312 40.835938 304.019531 41.136719 304.171875 C 41.441406 304.320312 41.671875 304.519531 41.824219 304.777344 C 41.984375 305.035156 42.0625 305.324219 42.0625 305.648438 C 42.0625 306.027344 41.953125 306.351562 41.730469 306.628906 C 41.519531 306.902344 41.238281 307.082031 40.886719 307.160156 L 40.886719 307.207031 C 41.285156 307.304688 41.601562 307.496094 41.832031 307.785156 C 42.066406 308.070312 42.179688 308.445312 42.179688 308.910156 C 42.179688 309.257812 42.101562 309.574219 41.941406 309.855469 C 41.785156 310.128906 41.546875 310.347656 41.226562 310.503906 C 40.910156 310.664062 40.527344 310.742188 40.082031 310.742188 C 39.433594 310.742188 38.902344 310.574219 38.484375 310.238281 C 38.070312 309.898438 37.835938 309.414062 37.789062 308.792969 L 38.597656 308.792969 C 38.640625 309.15625 38.789062 309.457031 39.046875 309.6875 C 39.300781 309.921875 39.644531 310.035156 40.074219 310.035156 C 40.5 310.035156 40.824219 309.925781 41.042969 309.707031 C 41.269531 309.480469 41.382812 309.191406 41.382812 308.835938 C 41.382812 308.378906 41.230469 308.050781 40.925781 307.847656 C 40.621094 307.644531 40.15625 307.542969 39.539062 307.542969 L 39.328125 307.542969 L 39.328125 306.847656 L 39.550781 306.847656 C 40.113281 306.84375 40.535156 306.75 40.824219 306.574219 C 41.113281 306.390625 41.253906 306.109375 41.253906 305.730469 C 41.253906 305.40625 41.148438 305.148438 40.933594 304.953125 C 40.726562 304.757812 40.425781 304.65625 40.035156 304.65625 C 39.65625 304.65625 39.351562 304.757812 39.117188 304.953125 C 38.886719 305.148438 38.75 305.410156 38.707031 305.738281 Z M 47.003906 305.648438 C 46.871094 304.96875 46.449219 304.632812 45.746094 304.632812 C 45.203125 304.632812 44.796875 304.84375 44.527344 305.261719 C 44.257812 305.679688 44.128906 306.367188 44.132812 307.324219 C 44.273438 307.007812 44.507812 306.757812 44.832031 306.582031 C 45.160156 306.398438 45.527344 306.308594 45.929688 306.308594 C 46.5625 306.308594 47.0625 306.503906 47.433594 306.894531 C 47.8125 307.285156 48.003906 307.824219 48.003906 308.515625 C 48.003906 308.933594 47.921875 309.304688 47.757812 309.632812 C 47.597656 309.964844 47.351562 310.226562 47.023438 310.421875 C 46.699219 310.617188 46.304688 310.714844 45.839844 310.714844 C 45.210938 310.714844 44.71875 310.574219 44.363281 310.292969 C 44.007812 310.011719 43.761719 309.625 43.621094 309.128906 C 43.480469 308.636719 43.410156 308.023438 43.410156 307.296875 C 43.410156 305.054688 44.191406 303.933594 45.757812 303.933594 C 46.355469 303.933594 46.828125 304.097656 47.167969 304.421875 C 47.511719 304.742188 47.714844 305.152344 47.773438 305.648438 Z M 45.757812 307.011719 C 45.492188 307.011719 45.246094 307.070312 45.015625 307.179688 C 44.78125 307.28125 44.59375 307.445312 44.445312 307.664062 C 44.304688 307.878906 44.234375 308.140625 44.234375 308.453125 C 44.234375 308.917969 44.367188 309.296875 44.636719 309.589844 C 44.90625 309.875 45.292969 310.019531 45.792969 310.019531 C 46.222656 310.019531 46.5625 309.886719 46.8125 309.625 C 47.070312 309.355469 47.195312 308.996094 47.195312 308.542969 C 47.195312 308.066406 47.074219 307.695312 46.828125 307.425781 C 46.585938 307.152344 46.226562 307.011719 45.757812 307.011719 Z M 45.757812 307.011719 " fill-opacity="1" fill-rule="nonzero"/><g clip-path="url(#1a433a1e06)"><path stroke-linecap="round" transform="matrix(0.0839998, 0, 0, 0.0839281, 0.0544311, 22.734374)" fill="none" stroke-linejoin="miter" d="M 2800.37244 3408.050389 C 2800.37244 3408.050389 2963.551772 3373.887969 3038.142723 3294.718658 C 3137.008286 3189.857718 3159.794799 3064.099058 3268.100488 3051.160158 C 3438.06927 3030.867495 3536.609311 3630.943883 3742.943508 3549.773231 C 3949.277704 3468.602578 3900.542469 3020.441906 4023.310619 2944.530591 C 4107.85323 2892.169935 4151.845151 3047.809076 4270.24201 3007.177207 " stroke="#ffffff" stroke-width="46.988998" stroke-opacity="1" stroke-miterlimit="10"/></g><g clip-path="url(#b2c38b4bdb)"><g clip-path="url(#5cde778257)"><path fill="url(#3df54cc249)" d="M 94.929688 266.691406 L 94.929688 333.15625 L 170.039062 333.15625 L 170.039062 266.691406 Z M 94.929688 266.691406 " fill-rule="nonzero"/></g></g><path fill="#ffffff" d="M 8.492188 312.039062 L 9.898438 312.039062 C 10.160156 312.039062 10.410156 311.933594 10.597656 311.75 C 10.78125 311.5625 10.886719 311.3125 10.886719 311.050781 L 10.886719 304.582031 C 10.886719 304.320312 10.78125 304.070312 10.597656 303.882812 C 10.410156 303.699219 10.160156 303.597656 9.898438 303.59375 L 8.492188 303.59375 C 8.230469 303.597656 7.980469 303.699219 7.796875 303.882812 C 7.609375 304.070312 7.507812 304.320312 7.503906 304.582031 L 7.503906 311.050781 C 7.507812 311.3125 7.609375 311.5625 7.796875 311.75 C 7.980469 311.933594 8.230469 312.039062 8.492188 312.039062 Z M 8.492188 312.039062 " fill-opacity="1" fill-rule="nonzero"/><path fill="#ffffff" d="M 14.703125 299.515625 C 14.140625 299.515625 13.859375 299.796875 13.859375 301.203125 C 13.859375 302.542969 12.5625 303.617188 11.730469 304.171875 L 11.730469 311.144531 C 12.632812 311.558594 14.4375 312.179688 17.238281 312.179688 L 18.140625 312.179688 C 18.671875 312.179688 19.1875 311.992188 19.59375 311.648438 C 20 311.308594 20.269531 310.832031 20.359375 310.308594 L 20.992188 306.652344 C 21.046875 306.328125 21.03125 305.996094 20.945312 305.679688 C 20.859375 305.363281 20.707031 305.070312 20.496094 304.820312 C 20.28125 304.566406 20.019531 304.367188 19.722656 304.226562 C 19.425781 304.089844 19.101562 304.019531 18.773438 304.019531 L 16.113281 304.019531 C 16.410156 303.304688 16.554688 302.539062 16.535156 301.765625 C 16.535156 300.078125 15.269531 299.515625 14.703125 299.515625 Z M 14.703125 299.515625 " fill-opacity="1" fill-rule="nonzero"/><path fill="#ffffff" d="M 55.402344 255.007812 C 47.933594 252.375 41.878906 244.191406 41.878906 236.726562 C 41.878906 229.261719 47.933594 225.34375 55.402344 227.976562 L 55.402344 219.300781 C 43.335938 215.050781 33.550781 221.378906 33.550781 233.4375 C 33.550781 245.496094 43.335938 258.71875 55.402344 262.96875 C 66.964844 267.042969 76.421875 261.40625 77.199219 250.328125 L 68.878906 247.398438 C 68.289062 254.113281 62.484375 257.503906 55.402344 255.007812 Z M 55.402344 255.007812 " fill-opacity="1" fill-rule="nonzero"/><path fill="#1c85e8" d="M 58.179688 217.507812 L 58.179688 226.179688 C 65.648438 228.8125 71.707031 237 71.707031 244.464844 C 71.707031 244.851562 71.6875 245.230469 71.652344 245.601562 L 79.972656 248.53125 C 80.007812 248.042969 80.03125 247.550781 80.03125 247.039062 C 80.03125 234.980469 70.246094 221.757812 58.179688 217.507812 Z M 58.179688 217.507812 " fill-opacity="1" fill-rule="nonzero"/><path stroke-linecap="butt" transform="matrix(0.0839998, 0, 0, 0.0839281, 0.0544311, 22.734374)" fill="none" stroke-linejoin="miter" d="M 658.90529 2767.528303 L 658.90529 2862.38254 " stroke="#ffffff" stroke-width="11.005" stroke-opacity="1" stroke-miterlimit="10"/><path stroke-linecap="butt" transform="matrix(0.0839998, 0, 0, 0.0839281, 0.0544311, 22.734374)" fill="none" stroke-linejoin="miter" d="M 497.911603 2549.707974 L 398.767022 2514.754327 " stroke="#ffffff" stroke-width="11.005" stroke-opacity="1" stroke-miterlimit="10"/><path stroke-linecap="round" transform="matrix(0.0839998, 0, 0, 0.0839281, 0.0544311, 22.734374)" fill="none" stroke-linejoin="miter" d="M 1076.130985 2564.462043 L 1260.050694 2599.41569 " stroke="#ffffff" stroke-width="46.988998" stroke-opacity="1" stroke-miterlimit="10"/><path stroke-linecap="round" transform="matrix(0.0839998, 0, 0, 0.0839281, 0.0544311, 22.734374)" fill="none" stroke-linejoin="miter" d="M 1076.130985 2852.701636 L 1260.050694 2887.60874 " stroke="#ffffff" stroke-width="46.988998" stroke-opacity="0.4" stroke-miterlimit="10"/><path stroke-linecap="round" transform="matrix(0.0839998, 0, 0, 0.0839281, 0.0544311, 22.734374)" fill="none" stroke-linejoin="miter" d="M 1076.130985 2711.490765 L 1340.361525 2761.710452 " stroke="#ffffff" stroke-width="46.988998" stroke-opacity="1" stroke-miterlimit="10"/><g clip-path="url(#d164bf599d)"><g clip-path="url(#59a4f21603)"><path fill="url(#f4b6628c93)" d="M 272.140625 28.785156 L 272.140625 153.941406 L 374.917969 153.941406 L 374.917969 28.785156 Z M 272.140625 28.785156 " fill-rule="nonzero"/></g></g><path fill="#ffffff" d="M 279.207031 85.351562 L 279.207031 127.234375 C 279.207031 127.597656 279.289062 127.960938 279.445312 128.289062 C 279.605469 128.617188 279.832031 128.90625 280.117188 129.132812 C 280.402344 129.363281 280.734375 129.523438 281.089844 129.605469 C 281.445312 129.6875 281.816406 129.6875 282.171875 129.609375 C 289.808594 127.902344 310.460938 122.960938 323.503906 116.8125 C 323.921875 116.617188 324.273438 116.304688 324.519531 115.914062 C 324.761719 115.523438 324.894531 115.074219 324.890625 114.613281 L 324.890625 73.828125 C 324.894531 73.417969 324.792969 73.015625 324.59375 72.660156 C 324.402344 72.300781 324.121094 72 323.773438 71.777344 C 323.429688 71.558594 323.039062 71.425781 322.632812 71.398438 C 322.222656 71.371094 321.816406 71.445312 321.445312 71.613281 C 314.175781 74.960938 296.707031 82.265625 281.519531 82.921875 C 280.894531 82.953125 280.304688 83.222656 279.875 83.675781 C 279.445312 84.125 279.207031 84.726562 279.207031 85.351562 Z M 279.207031 85.351562 " fill-opacity="1" fill-rule="nonzero"/><path fill="#1c85e8" d="M 281.09375 120.492188 L 281.09375 124.898438 C 281.09375 125.230469 281.171875 125.5625 281.320312 125.859375 C 281.46875 126.15625 281.683594 126.417969 281.949219 126.621094 C 282.214844 126.824219 282.523438 126.960938 282.851562 127.027344 C 283.175781 127.089844 283.515625 127.078125 283.835938 126.988281 L 306.683594 120.75 C 307.046875 120.648438 307.371094 120.460938 307.640625 120.199219 C 307.90625 119.9375 308.097656 119.609375 308.199219 119.25 C 308.300781 118.890625 308.308594 118.511719 308.222656 118.152344 C 308.132812 117.789062 307.953125 117.453125 307.703125 117.179688 L 295.453125 104.011719 C 295.230469 103.777344 294.964844 103.59375 294.664062 103.472656 C 294.363281 103.355469 294.039062 103.304688 293.71875 103.328125 C 293.394531 103.347656 293.082031 103.441406 292.800781 103.597656 C 292.519531 103.757812 292.277344 103.976562 292.089844 104.238281 L 281.492188 119.242188 C 281.234375 119.609375 281.09375 120.042969 281.09375 120.492188 Z M 281.09375 120.492188 " fill-opacity="1" fill-rule="nonzero"/><path fill="#1c85e8" d="M 304.386719 110.160156 L 311.246094 117.429688 C 311.464844 117.664062 311.75 117.824219 312.0625 117.894531 C 312.375 117.96875 312.703125 117.941406 313.003906 117.824219 C 315.027344 117.035156 319.578125 115.25 321.882812 114.257812 C 322.171875 114.132812 322.414062 113.925781 322.589844 113.664062 C 322.761719 113.402344 322.851562 113.09375 322.851562 112.78125 L 322.851562 105.96875 C 322.851562 105.621094 322.738281 105.28125 322.53125 105.003906 L 312.890625 92.101562 C 312.71875 91.871094 312.484375 91.691406 312.21875 91.578125 C 311.953125 91.46875 311.660156 91.429688 311.375 91.472656 C 311.089844 91.511719 310.816406 91.628906 310.589844 91.808594 C 310.363281 91.988281 310.195312 92.226562 310.089844 92.5 L 304.054688 108.484375 C 303.945312 108.769531 303.917969 109.074219 303.980469 109.371094 C 304.039062 109.667969 304.183594 109.941406 304.386719 110.160156 Z M 304.386719 110.160156 " fill-opacity="0.6" fill-rule="nonzero"/><path fill="#febb94" d="M 298.367188 98.808594 C 300.402344 98.808594 302.050781 97.164062 302.050781 95.132812 C 302.050781 93.101562 300.402344 91.457031 298.367188 91.457031 C 296.335938 91.457031 294.6875 93.101562 294.6875 95.132812 C 294.6875 97.164062 296.335938 98.808594 298.367188 98.808594 Z M 298.367188 98.808594 " fill-opacity="1" fill-rule="nonzero"/><g clip-path="url(#303ce0e028)"><path stroke-linecap="round" transform="matrix(0.0839998, 0, 0, 0.0839281, 0.0544311, 22.734374)" fill="none" stroke-linejoin="miter" d="M 3993.50214 566.1467 C 4105.946604 509.08522 4214.159287 444.111464 4317.303134 371.597774 " stroke="#ffffff" stroke-width="46.988998" stroke-opacity="1" stroke-miterlimit="10"/></g><g clip-path="url(#2c1f1d689e)"><path stroke-linecap="round" transform="matrix(0.0839998, 0, 0, 0.0839281, 0.0544311, 22.734374)" fill="none" stroke-linejoin="miter" d="M 3993.50214 755.389746 C 3993.50214 755.389746 4067.163029 719.505243 4168.307243 658.161826 " stroke="#ffffff" stroke-width="46.988998" stroke-opacity="1" stroke-miterlimit="10"/></g><g clip-path="url(#dbbfb60a3c)"><path stroke-linecap="round" transform="matrix(0.0839998, 0, 0, 0.0839281, 0.0544311, 22.734374)" fill="none" stroke-linejoin="miter" d="M 3993.50214 940.490482 C 4105.946604 883.429003 4214.159287 818.455247 4317.303134 745.941556 " stroke="#ffffff" stroke-width="46.988998" stroke-opacity="1" stroke-miterlimit="10"/></g><g clip-path="url(#3b550a8dc2)"><path stroke-linecap="round" transform="matrix(0.0839998, 0, 0, 0.0839281, 0.0544311, 22.734374)" fill="none" stroke-linejoin="miter" d="M 3993.50214 1148.257565 C 4105.946604 1091.196086 4214.159287 1026.222329 4317.303134 953.708639 " stroke="#ffffff" stroke-width="46.988998" stroke-opacity="1" stroke-miterlimit="10"/></g><path fill="#ffffff" d="M 284.457031 141.6875 C 286.3125 141.6875 287.820312 140.183594 287.820312 138.328125 C 287.820312 136.472656 286.3125 134.96875 284.457031 134.96875 C 282.597656 134.96875 281.09375 136.472656 281.09375 138.328125 C 281.09375 140.183594 282.597656 141.6875 284.457031 141.6875 Z M 284.457031 141.6875 " fill-opacity="1" fill-rule="nonzero"/><path fill="#ffffff" d="M 303.949219 136.253906 C 305.804688 136.253906 307.3125 134.75 307.3125 132.894531 C 307.3125 131.039062 305.804688 129.535156 303.949219 129.535156 C 302.09375 129.535156 300.589844 131.039062 300.589844 132.894531 C 300.589844 134.75 302.09375 136.253906 303.949219 136.253906 Z M 303.949219 136.253906 " fill-opacity="1" fill-rule="nonzero"/><path fill="#ffffff" d="M 321.53125 130.253906 C 323.390625 130.253906 324.890625 128.75 324.890625 126.894531 C 324.890625 125.039062 323.390625 123.535156 321.53125 123.535156 C 319.675781 123.535156 318.167969 125.039062 318.167969 126.894531 C 318.167969 128.75 319.675781 130.253906 321.53125 130.253906 Z M 321.53125 130.253906 " fill-opacity="1" fill-rule="nonzero"/></svg>