<svg xmlns="http://www.w3.org/2000/svg" version="1.1" xmlns:xlink="http://www.w3.org/1999/xlink" width="512" height="512" x="0" y="0" viewBox="0 0 195 195" style="enable-background:new 0 0 512 512" xml:space="preserve"><g><path d="M120.48 158.35c-1.51.71-3.19 1.1-4.96 1.1H33.28c-6.5 0-11.78-5.27-11.78-11.78 0-13.48 5.47-25.68 14.3-34.52s21.04-14.3 34.52-14.3h8.16c4.92 0 9.68.73 14.16 2.08l-.04.07c-1.4 2.43-1.77 5.26-1.05 7.97.73 2.71 2.47 4.98 4.9 6.38l1.12.65c-.13 1.3-.2 2.61-.2 3.92s.07 2.62.2 3.92l-1.12.65c-2.43 1.4-4.17 3.67-4.9 6.38-.72 2.71-.35 5.54 1.05 7.97l5.49 9.5c1.87 3.24 5.36 5.26 9.1 5.26 1.84 0 3.65-.49 5.25-1.41l1.12-.65c2.13 1.53 4.41 2.85 6.8 3.92v1.3c0 .54.04 1.07.12 1.59z" fill="#ffffff" opacity="1" data-original="#000000"></path><circle cx="74.4" cy="62" r="26.45" fill="#ffffff" opacity="1" data-original="#000000"></circle><path d="m172.25 131.42-5.99-3.46c.69-2.57 1.06-5.26 1.06-8.04s-.37-5.48-1.06-8.04l5.99-3.46c1.2-.69 1.61-2.22.92-3.42l-5.49-9.5a2.503 2.503 0 0 0-3.42-.92l-5.99 3.46c-3.8-3.8-8.58-6.62-13.93-8.05v-6.91a2.5 2.5 0 0 0-2.5-2.5h-10.97a2.5 2.5 0 0 0-2.5 2.5v6.91a30.861 30.861 0 0 0-13.93 8.05l-5.99-3.46c-1.2-.69-2.73-.28-3.42.92l-5.49 9.5c-.69 1.2-.28 2.73.92 3.42l5.99 3.46c-.69 2.57-1.06 5.26-1.06 8.04s.37 5.48 1.06 8.04l-5.99 3.46c-1.2.69-1.61 2.22-.92 3.42l5.49 9.5c.69 1.2 2.22 1.61 3.42.92l5.99-3.46c3.8 3.8 8.58 6.62 13.93 8.05v6.91a2.5 2.5 0 0 0 2.5 2.5h10.97a2.5 2.5 0 0 0 2.5-2.5v-6.91a30.861 30.861 0 0 0 13.93-8.05l5.99 3.46c1.2.69 2.73.28 3.42-.92l5.49-9.5c.69-1.2.28-2.73-.92-3.42zm-35.9 1.13c-6.98 0-12.63-5.66-12.63-12.63 0-6.98 5.66-12.63 12.63-12.63s12.63 5.66 12.63 12.63-5.65 12.63-12.63 12.63z" fill="#ffffff" opacity="1" data-original="#000000"></path></g></svg>