<svg xmlns="http://www.w3.org/2000/svg" version="1.1" xmlns:xlink="http://www.w3.org/1999/xlink" width="512" height="512" x="0" y="0" viewBox="0 0 100 100" style="enable-background:new 0 0 512 512" xml:space="preserve" class=""><g><path d="M82.685 14.744H69.713v-1.852c0-4.344-3.534-7.878-7.878-7.878h-23.67c-4.344 0-7.878 3.534-7.878 7.878v1.852H17.315a6.171 6.171 0 0 0-6.164 6.163v2.922c0 3.181 2.423 5.806 5.519 6.13l6.347 55.696c.605 5.319 5.1 9.33 10.454 9.33h33.057c5.354 0 9.849-4.011 10.454-9.33l6.347-55.696a6.172 6.172 0 0 0 5.519-6.13v-2.922a6.171 6.171 0 0 0-6.164-6.163zm-48.397-1.852a3.882 3.882 0 0 1 3.878-3.878h23.67a3.882 3.882 0 0 1 3.878 3.878v1.852H34.288zm38.721 72.31a6.517 6.517 0 0 1-6.479 5.783H33.473a6.517 6.517 0 0 1-6.479-5.783l-6.291-55.209h58.598L73.01 85.202zM84.85 23.829a2.167 2.167 0 0 1-2.164 2.164H17.315a2.167 2.167 0 0 1-2.164-2.164v-2.922c0-1.192.971-2.163 2.164-2.163h65.369c1.193 0 2.164.971 2.164 2.163v2.922z" fill="#000000" opacity="1" data-original="#000000" class=""></path><path d="M50 80.16a2 2 0 0 0 2-2V42.818a2 2 0 0 0-4 0V78.16a2 2 0 0 0 2 2zM61.956 80.067a1.998 1.998 0 0 0 2.184-1.796l3.426-35.176a2 2 0 0 0-1.796-2.185 1.987 1.987 0 0 0-2.185 1.796l-3.426 35.176a2 2 0 0 0 1.796 2.185zM37.848 80.077a2 2 0 0 0 1.992-2.195l-3.426-35.176a1.988 1.988 0 0 0-2.185-1.796 2 2 0 0 0-1.796 2.185l3.426 35.176a2 2 0 0 0 1.988 1.806z" fill="#000000" opacity="1" data-original="#000000" class=""></path></g></svg>